<svg width="44" height="29" viewBox="0 0 44 29" fill="none" xmlns="http://www.w3.org/2000/svg">
<path d="M16.4148 11.2216H13.7557C13.6534 10.6534 13.4631 10.1534 13.1847 9.72159C12.9063 9.28977 12.5653 8.9233 12.1619 8.62216C11.7585 8.32102 11.3068 8.09375 10.8068 7.94034C10.3125 7.78693 9.78693 7.71023 9.23011 7.71023C8.22443 7.71023 7.32386 7.96307 6.52841 8.46875C5.73864 8.97443 5.11364 9.71591 4.65341 10.6932C4.19886 11.6705 3.97159 12.8636 3.97159 14.2727C3.97159 15.6932 4.19886 16.892 4.65341 17.8693C5.11364 18.8466 5.74148 19.5852 6.53693 20.0852C7.33239 20.5852 8.22727 20.8352 9.22159 20.8352C9.77273 20.8352 10.2955 20.7614 10.7898 20.6136C11.2898 20.4602 11.7415 20.2358 12.1449 19.9403C12.5483 19.6449 12.8892 19.2841 13.1676 18.858C13.4517 18.4261 13.6477 17.9318 13.7557 17.375L16.4148 17.3835C16.2727 18.2415 15.9972 19.0312 15.5881 19.7528C15.1847 20.4688 14.6648 21.0881 14.0284 21.6108C13.3977 22.1278 12.6761 22.5284 11.8636 22.8125C11.0511 23.0966 10.1648 23.2386 9.20455 23.2386C7.69318 23.2386 6.34659 22.8807 5.16477 22.1648C3.98295 21.4432 3.05114 20.4119 2.36932 19.071C1.69318 17.7301 1.35511 16.1307 1.35511 14.2727C1.35511 12.4091 1.69602 10.8097 2.37784 9.47443C3.05966 8.13352 3.99148 7.10511 5.1733 6.3892C6.35511 5.66761 7.69886 5.30682 9.20455 5.30682C10.1307 5.30682 10.9943 5.44034 11.7955 5.70739C12.6023 5.96875 13.3267 6.35511 13.9688 6.86648C14.6108 7.37216 15.142 7.99148 15.5625 8.72443C15.983 9.4517 16.267 10.2841 16.4148 11.2216Z" fill="black"/>
<path d="M25.0246 12.7149C25.0246 12.1681 25.1195 10.7766 25.3235 9.98378C25.5126 9.24887 25.9584 8.90314 26.3898 8.67471C26.6309 8.54699 26.9175 8.47002 27.2168 8.49376C27.455 8.51266 27.6852 8.68514 27.9722 8.86429C28.2954 9.06595 28.4535 9.38015 28.5255 9.76182C28.748 10.9424 28.3586 11.3939 28.1909 11.7781C28.0229 12.1632 27.783 12.3782 27.7229 12.4746C27.5509 12.7506 28.7356 11.8055 29.5425 11.481C30.0049 11.295 30.6091 11.204 31.1602 11.2396C31.4909 11.261 31.6667 11.5148 31.8343 11.7062C32.1398 12.0549 32.0509 12.712 32.0279 13.3243C32.0083 13.8436 31.2623 13.961 30.5803 14.0696C29.074 14.3096 28.5996 14.0099 28.3953 14.0218C28.1324 14.0371 29.0277 14.2488 29.6863 14.6438C30.3548 15.0446 30.9458 15.3985 31.3188 15.8669C31.4562 16.0393 31.4278 16.5245 31.3922 17.1353C31.3683 17.5459 31.1408 17.7504 30.9497 17.9058C30.437 18.323 29.6579 18.3267 29.127 18.2195C28.6345 18.1201 28.4075 17.6087 27.9521 17.1295C27.6302 16.7909 27.4952 16.4101 27.3276 16.0259C27.2845 15.9271 27.2319 15.8345 27.2074 15.8449C26.6448 16.0849 27.4707 17.3655 27.5423 17.8213C27.5802 18.0623 27.6146 18.5865 27.5909 19.2574C27.577 19.6496 27.3283 19.9081 27.0294 20.1477C26.5221 20.5542 25.9858 20.5081 25.4703 20.5096C24.894 20.5112 24.7138 19.7441 24.5217 19.2401C24.2188 18.4456 24.4245 17.4418 24.5803 16.9497C24.6652 16.6815 24.6648 16.3144 24.653 16.05C24.6396 15.7529 24.236 17.0029 23.7792 17.5576C23.5431 17.8443 23.2748 17.9907 23.0597 18.0386C22.1937 18.2312 20.9265 17.9684 20.4336 17.7878C19.9868 17.6241 20.0128 17.0576 20.0002 16.4345C19.9906 15.9593 20.4185 15.4992 20.7783 15.1621C21.1186 14.8433 21.5927 14.7064 22.2873 14.4783C22.518 14.4026 22.8359 14.4416 22.9356 14.4297C23.2461 14.3927 22.1726 13.9639 21.7406 13.5915C21.4121 13.3085 21.1884 12.9566 21.0441 12.5487C20.948 12.2768 20.8517 11.9019 20.8873 11.4947C20.9121 11.2102 21.1387 11.0371 21.2941 10.8694C21.7709 10.3551 22.9842 10.7953 23.3565 10.9396C23.6806 11.1795 24.0159 11.4184 24.2803 11.7781C24.3288 11.8745 24.3526 11.9695 24.377 12.2832" stroke="#392EFF" stroke-width="1.28" stroke-linecap="round"/>
<path d="M24.6626 13.3299C24.6626 13.2587 24.6626 13.1874 24.6982 13.1151C24.7773 12.9546 25.2109 12.8982 25.762 12.922C26.3252 12.9462 26.6757 13.4004 27.179 13.9393C27.6392 14.4321 27.2534 15.3674 27.098 15.5351C26.7988 15.8579 25.5591 15.7761 24.7601 15.5495C24.3207 15.4248 24.3993 14.7947 24.3867 13.9925C24.3986 13.8105 24.4223 13.7155 24.4583 13.6191C24.4943 13.5227 24.5418 13.4277 24.8065 13.186" stroke="#392EFF" stroke-width="1.28" stroke-linecap="round"/>
<path d="M41.8815 9.90909V11.9545H34.7309V9.90909H41.8815ZM36.6485 6.77273H39.1968V19.1562C39.1968 19.6506 39.2707 20.0227 39.4184 20.2727C39.5661 20.517 39.7565 20.6847 39.9894 20.7756C40.2281 20.8608 40.4866 20.9034 40.765 20.9034C40.9695 20.9034 41.1485 20.8892 41.3019 20.8608C41.4553 20.8324 41.5747 20.8097 41.6599 20.7926L42.1201 22.8977C41.9724 22.9545 41.7622 23.0114 41.4894 23.0682C41.2167 23.1307 40.8758 23.1648 40.4667 23.1705C39.7963 23.1818 39.1713 23.0625 38.5917 22.8125C38.0122 22.5625 37.5434 22.1761 37.1855 21.6534C36.8275 21.1307 36.6485 20.4744 36.6485 19.6847V6.77273Z" fill="black"/>
</svg>
