<svg width="42" height="42" viewBox="0 0 42 42" fill="none" xmlns="http://www.w3.org/2000/svg">
<path d="M17.5348 15.0615C17.5348 13.3688 17.8288 9.06149 18.4602 6.60715C19.0455 4.3322 20.4257 3.26196 21.7609 2.55484C22.5074 2.15947 23.3945 1.92121 24.321 1.9947C25.0583 2.05319 25.7709 2.58713 26.6595 3.14169C27.6599 3.76596 28.1495 4.73857 28.3722 5.92008C29.0611 9.57465 27.8555 10.9724 27.3366 12.1617C26.8165 13.3537 26.0738 14.0191 25.8878 14.3176C25.3553 15.1722 29.0225 12.2463 31.5203 11.2419C32.9518 10.6662 34.8221 10.3844 36.5281 10.4947C37.5518 10.5608 38.096 11.3466 38.6149 11.939C39.5605 13.0185 39.2853 15.0526 39.214 16.9479C39.1536 18.5556 36.8443 18.9189 34.733 19.2552C30.07 19.9979 28.6016 19.0703 27.9691 19.1071C27.1552 19.1544 29.9268 19.8098 31.9657 21.0325C34.035 22.2734 35.8644 23.3688 37.0192 24.8187C37.4443 25.3525 37.3566 26.8543 37.2463 28.7451C37.1722 30.0161 36.4679 30.6494 35.8766 31.1304C34.2893 32.4218 31.8778 32.4333 30.2341 32.1015C28.7096 31.7937 28.007 30.2106 26.5972 28.7273C25.6008 27.6791 25.1829 26.5002 24.664 25.3109C24.5305 25.005 24.3678 24.7184 24.292 24.7507C22.5503 25.4935 25.1072 29.4578 25.3288 30.8687C25.446 31.6148 25.5526 33.2373 25.4791 35.3142C25.4362 36.5284 24.6662 37.3286 23.7408 38.0703C22.1707 39.3286 20.5103 39.1861 18.9146 39.1905C17.1306 39.1955 16.5727 36.8208 15.978 35.2607C15.0407 32.8014 15.6774 29.6939 16.1596 28.1705C16.4224 27.3403 16.4212 26.2039 16.3845 25.3855C16.3432 24.466 15.0939 28.3353 13.6796 30.0525C12.9488 30.9399 12.1184 31.3932 11.4525 31.5413C8.77165 32.1376 4.84893 31.3242 3.32332 30.7652C1.93998 30.2583 2.02043 28.5046 1.98145 26.5759C1.95172 25.1047 3.27655 23.6806 4.39013 22.6372C5.44365 21.65 6.91127 21.2262 9.0616 20.5202C9.7755 20.2858 10.7598 20.4066 11.0683 20.3699C12.0296 20.2554 8.70637 18.9278 7.36896 17.7753C6.35235 16.8992 5.65961 15.8098 5.21306 14.547C4.91549 13.7055 4.6173 12.5448 4.72754 11.2842C4.80454 10.4037 5.50593 9.86772 5.987 9.34879C7.46291 7.75674 11.2186 9.11939 12.3712 9.56594C13.3745 10.3087 14.4124 11.0481 15.2308 12.1617C15.3812 12.4601 15.4547 12.7541 15.5304 13.7252" stroke="#392EFF" stroke-width="3.96233" stroke-linecap="round"/>
<path d="M16.4142 16.9649C16.4142 16.7444 16.4142 16.524 16.5244 16.3001C16.7692 15.8032 18.1113 15.6286 19.8173 15.7021C21.5607 15.7772 22.6458 17.1832 24.2037 18.8513C25.6283 20.3767 24.4342 23.2723 23.9531 23.7912C23.0267 24.7905 19.1892 24.5373 16.716 23.8357C15.3556 23.4499 15.599 21.4994 15.5601 19.0161C15.5968 18.4527 15.6703 18.1587 15.7817 17.8603C15.893 17.5618 16.04 17.2678 16.8596 16.5195" stroke="#392EFF" stroke-width="3.96233" stroke-linecap="round"/>
</svg>
