<svg width="24" height="24" viewBox="0 0 24 24" fill="none" xmlns="http://www.w3.org/2000/svg">
<path d="M4.896 7.16748C6.72844 7.16748 8.56089 7.16748 10.4711 7.16748C12.3813 7.16748 14.3137 7.16748 15.5757 7.2008C17.3708 7.30075 18.2532 7.3694 18.8246 7.38606C19.0629 7.40272 19.1961 7.43604 19.0306 7.57133" stroke="#F86A57" stroke-width="2" stroke-linecap="round"/>
<path d="M7.521 8.37917C7.521 10.0905 7.78753 12.1046 7.9415 13.1385C8.11743 14.3198 8.09244 15.9472 8.14342 16.8231C8.18361 17.5135 8.49628 18.1017 8.63106 18.8428C8.68658 19.148 8.83248 19.3829 9.05056 19.5844C9.49444 19.9943 10.1096 19.9554 10.6488 20.0735C11.1777 20.1894 12.9911 20.1916 14.1824 20.0912C14.4583 20.0679 14.7549 19.9897 15.0572 19.9397C15.3329 19.8942 15.4626 19.5202 15.5802 19.1845C15.6989 17.4112 15.7322 14.7074 15.7827 13.4727C15.7998 12.3712 15.7998 10.3055 15.7998 8.17725" stroke="#F86A57" stroke-width="2" stroke-linecap="round"/>
<path d="M12.1652 6.86478C11.93 6.52958 11.7957 5.99247 11.6776 5.42002C11.6604 5.05151 11.6271 4.71228 11.5766 4.41041C11.5595 4.2418 11.5595 4.0419 11.4585 3.83594" stroke="#F86A57" stroke-width="2" stroke-linecap="round"/>
</svg>
