<svg width="25" height="25" viewBox="0 0 25 25" fill="none" xmlns="http://www.w3.org/2000/svg">
<path d="M17.046 4.66408C16.8333 4.60357 16.1639 4.48071 15.5505 4.35922C14.8645 4.22335 14.42 3.96174 13.9152 3.7481C13.2696 3.47484 12.5862 3.2594 12.0966 3.10582C11.5928 2.9478 10.9669 2.95316 10.4613 2.93665C9.77934 2.91439 9.65212 3.98925 9.2386 4.52426C8.66462 5.26687 8.33729 6.00642 7.9091 6.57215C7.52087 7.08508 7.1765 7.93007 6.59565 8.92399C6.1006 9.77107 5.55726 10.7101 5.29503 11.3556C5.08118 11.882 4.7614 12.5457 4.56151 13.0977C4.38156 13.5946 4.2406 14.0751 4.22455 14.793C4.21044 15.4247 4.36163 16.0923 4.48404 16.5819C4.61358 17.1001 4.72839 17.651 4.85079 18.1406C4.97518 18.6382 5.18684 19.1786 5.47658 19.6994C5.74085 20.1744 6.31462 20.7061 6.88172 21.1517C7.3611 21.5284 7.844 21.7477 8.33363 21.9013C9.26689 22.194 10.7781 21.9329 11.2677 21.8105C11.7573 21.6881 12.2451 21.5056 12.7347 21.2608C13.2136 21.0214 13.6205 20.6804 14.0188 20.3444C14.4158 20.0096 14.7519 19.6113 15.043 19.1378C15.384 18.5831 15.6083 18.0838 15.8682 17.5639C16.1896 16.9212 16.4335 16.4334 16.7544 15.9437C17.118 15.3891 17.5026 14.6307 17.8698 14.0948C18.2871 13.4858 18.4507 12.7658 18.7564 12.2762C19.0335 11.8326 19.2447 11.1777 19.5056 10.5496C19.7098 10.0579 19.8572 9.55664 19.9947 8.99092C20.123 8.46331 20.2551 7.57432 19.9814 6.94257C19.7524 6.41403 19.2484 6.07244 18.7899 5.67405C18.6671 5.5819 18.546 5.49113 18.4232 5.42924C18.3003 5.36734 18.1793 5.33709 18.0546 5.30591" stroke="#392EFF" stroke-width="2" stroke-linecap="round"/>
<path d="M5.58496 13.1912C6.50003 13.6488 7.17119 13.9541 7.84419 14.2599C8.36501 14.4965 8.94447 14.5959 9.55512 14.9012C10.7783 15.5128 11.5118 15.8796 11.9556 16.2156C12.5771 16.6862 13.1934 16.9487 13.6518 17.1637C13.7747 17.2247 13.8957 17.3154 14.0186 17.3924C14.1414 17.4695 14.2625 17.53 14.5706 17.5923" stroke="#392EFF" stroke-width="2" stroke-linecap="round"/>
<path d="M10.5503 22.0302C10.6299 22.0567 10.7095 22.0832 12.3823 22.0969C14.055 22.1106 17.3186 22.1106 20.681 22.1106" stroke="#392EFF" stroke-width="2" stroke-linecap="round"/>
</svg>
