<svg width="25" height="25" viewBox="0 0 25 25" fill="none" xmlns="http://www.w3.org/2000/svg">
<path d="M11.4001 7.83772C11.5994 7.63726 12.4024 7.47545 13.1082 7.6753C13.5866 7.81074 13.7742 8.35938 13.895 8.7603C14.057 9.29824 13.8165 9.80847 13.5556 10.0898C13.0894 10.5927 12.2889 10.4533 11.283 10.4147C10.9992 10.1756 10.8773 9.85194 10.777 9.53073C10.7167 9.36891 10.637 9.20951 10.4341 8.68301" stroke="#392EFF" stroke-width="1.5" stroke-linecap="round"/>
<path d="M11.0382 6.87165C10.9984 6.34999 10.9174 5.38876 10.9971 4.36293C11.0278 3.9678 11.2362 3.85515 11.3981 3.77364C12.0016 3.46961 12.6853 3.49047 13.2281 3.55024C13.4586 3.57562 13.5717 3.72957 13.6731 3.87085C13.8778 4.156 13.9364 5.05306 13.9961 6.06017C14.0137 6.35557 14.1755 6.19059 14.2968 6.0487C14.7516 5.51695 15.6221 5.18348 16.4288 4.96008C16.6624 4.89539 16.9891 4.93955 17.2131 5.03917C17.6292 5.22422 17.7595 5.70273 17.8803 6.16342C18.0681 6.87998 17.8416 7.51408 17.6213 7.81537C17.0831 8.55101 16.0327 8.52119 15.2665 8.58217C14.6912 8.62796 16.6292 9.04286 17.3755 9.46611C18.0908 9.87176 18.1218 10.8132 18.0831 12.4603C18.0743 12.8358 17.844 12.9868 17.6822 13.1087C16.9409 13.6675 15.6704 13.2331 14.8451 12.8908C14.1324 12.5952 13.8168 11.9446 13.6357 11.9428C12.6253 11.9327 13.2939 13.75 12.6914 14.5367C11.9539 15.4995 11.0817 15.6048 10.3366 15.6072C9.52134 15.6098 9.30897 14.5228 9.12663 13.6588C8.92448 12.7009 9.1858 11.9048 8.86821 11.6633C6.7391 10.0442 5.08249 10.7769 4.82105 10.5765C4.57184 10.3854 4.6381 9.93284 4.69788 9.55124C4.7576 9.16996 5.11992 8.88587 5.38076 8.62444C5.84894 8.15518 7.12569 8.32073 8.25355 8.32073C8.58443 8.32073 8.42503 8.32073 8.26322 8.26096C7.91813 8.13348 7.61838 7.79907 7.37686 7.31845C7.01603 6.6004 7.4143 5.86696 7.67513 5.54575C7.81055 5.37899 7.97581 5.22453 8.25718 5.14242C8.91455 4.95056 9.50701 5.17985 9.78837 5.44069C9.91034 5.58197 9.99004 5.74137 10.051 5.90319C10.112 6.065 10.1519 6.2244 10.1929 6.7509" stroke="#392EFF" stroke-width="1.5" stroke-linecap="round"/>
<path d="M13.332 13.634C13.3719 16.0069 13.5325 16.8099 13.5935 17.997C13.6532 18.4208 13.7342 18.7445 13.7945 19.1055C13.8151 19.3072 13.8151 19.5463 13.8151 19.7926" stroke="#392EFF" stroke-width="1.5" stroke-linecap="round"/>
<path d="M12.9707 20.2756C12.3331 20.0365 11.0084 19.9134 9.61849 19.9333C9.22436 19.9389 9.46392 19.9931 9.66679 20.0335C10.4341 20.1865 11.3163 20.3553 12.2027 20.4163C12.569 20.4415 13.048 20.5171 13.5509 20.4374C14.2179 20.3318 14.0961 19.0318 14.5786 18.326C15.1818 17.4434 16.1852 16.5781 17.5136 15.8904C18.3593 15.4525 19.1269 15.3246 19.4891 15.5637C20.0966 15.9646 19.4928 16.9729 19.2319 17.3346C18.6737 18.1086 17.644 18.6237 16.9581 19.507C16.6369 19.9496 16.3132 20.3143 15.992 20.5956C15.8302 20.7176 15.6708 20.7973 15.1443 20.8794" stroke="#392EFF" stroke-width="1.5" stroke-linecap="round"/>
</svg>
