<svg width="25" height="25" viewBox="0 0 25 25" fill="none" xmlns="http://www.w3.org/2000/svg">
<path d="M11.8535 11.6911C11.9677 11.653 12.0818 11.615 12.1977 11.6525C12.3135 11.6899 12.4277 11.8041 12.4865 11.939C12.5453 12.0739 12.5453 12.226 12.4121 12.3044C12.279 12.3828 12.0126 12.3828 11.8374 12.3067C11.6622 12.2306 11.5861 12.0785 11.5659 11.924C11.5457 11.7695 11.5838 11.6173 11.6604 11.4818C11.8152 11.2084 12.121 11.0766 12.4657 11.019C12.6566 10.987 12.8865 10.9994 13.0612 11.0564C13.2359 11.1135 13.35 11.2276 13.4088 11.4576C13.4676 11.6876 13.4676 12.03 13.3915 12.2445C13.3154 12.4589 13.1632 12.535 12.9326 12.5742C12.7021 12.6134 12.3977 12.6134 12.2029 12.5373C11.5859 12.2964 11.7383 11.5009 11.7953 11.1556C11.8223 10.9926 11.9665 10.8864 12.2155 10.8276C12.4646 10.7688 12.845 10.7688 13.0981 10.8259C13.3511 10.8829 13.4653 10.9971 13.5431 11.1319C13.659 11.419 13.6982 11.8802 13.6221 12.3794C13.546 12.5742 13.3938 12.6503 13.0064 12.7287" stroke="#392EFF" stroke-width="2" stroke-linecap="round"/>
</svg>
