<svg width="21" height="23" viewBox="0 0 21 23" fill="none" xmlns="http://www.w3.org/2000/svg">
<path d="M13.1325 15.9245C11.2547 15.9245 10.1532 15.815 8.96217 15.5936C7.7711 15.3721 6.45066 14.823 4.23774 13.4138C2.95087 12.5944 2.02151 11.5053 1.3845 10.6195C0.644796 9.59086 1.13236 7.74636 1.51887 6.63907C1.91191 5.51312 2.51252 4.64761 3.06658 3.81818C3.78359 2.74481 5.11029 2.26881 6.84961 1.41284C8.74387 0.480616 11.7988 1.32327 13.2926 2.01501C14.7033 2.66826 15.5047 3.69875 16.2819 4.64098C16.9951 5.50565 17.1138 8.65541 16.7837 10.86C16.551 12.4142 16.0654 13.3765 15.4574 14.2623C14.7246 15.3301 13.6335 16.0888 13.2453 16.5018C12.4305 17.3688 14.7317 18.0777 15.6449 18.8242C16.6692 19.8494 17.5517 20.5096 18.4376 21.2304C18.6598 21.3971 18.8788 21.5613 19.4362 21.8964" stroke="#392EFF" stroke-width="2" stroke-linecap="round"/>
</svg>
