<svg width="356" height="292" viewBox="0 0 356 292" fill="none" xmlns="http://www.w3.org/2000/svg">
<style>
svg { overflow: visible; }
@keyframes kf_Frame_1321317034_transform_0 {
  0% {
    transform: translate(164.5px, 132.5px) scaleX(0.046) scaleY(0.046) translate(-164.5px, -132.5px);
  }
  11.11% {
    transform: translate(164.5px, 132.5px) scaleX(1.108) scaleY(1.108) translate(-164.5px, -132.5px);
  }
  19.79% {
    transform: translate(164.5px, 132.5px) scaleX(1) scaleY(1) translate(-164.5px, -132.5px);
  }
  100% {
    transform: translate(164.5px, 132.5px) scaleX(1) scaleY(1) translate(-164.5px, -132.5px);
  }
}
#Frame_1321317034 {
  transform-origin: 0 0;
  animation: kf_Frame_1321317034_transform_0 4.5s linear infinite;
}
@keyframes kf_Group_3_transform_0 {
  0% {
    transform: translateX(7.045px) translateY(5.334px) translate(11.465px, 13.178px) scaleX(1) scaleY(1) translate(-11.465px, -13.178px);
  }
  11.11% {
    transform: translateX(7.045px) translateY(5.334px) translate(11.465px, 13.178px) scaleX(1) scaleY(1) translate(-11.465px, -13.178px);
  }
  22.22% {
    transform: translateX(7.045px) translateY(5.334px) translate(11.465px, 13.178px) scaleX(1) scaleY(1) translate(-11.465px, -13.178px);
  }
  33.33% {
    transform: translateX(7.045px) translateY(5.334px) translate(11.465px, 13.178px) scaleX(1) scaleY(1) translate(-11.465px, -13.178px);
  }
  44.44% {
    transform: translateX(7.045px) translateY(5.334px) translate(11.465px, 13.178px) scaleX(1) scaleY(1) translate(-11.465px, -13.178px);
  }
  46.67% {
    transform: translateX(7.045px) translateY(5.334px) translate(11.465px, 13.178px) scaleX(1) scaleY(1) translate(-11.465px, -13.178px);
  }
  53.33% {
    transform: translateX(7.045px) translateY(5.334px) translate(11.465px, 13.178px) scaleX(1.2) scaleY(1.2) translate(-11.465px, -13.178px);
  }
  60% {
    transform: translateX(7.045px) translateY(5.334px) translate(11.465px, 13.178px) scaleX(1) scaleY(1) translate(-11.465px, -13.178px);
  }
  71.11% {
    transform: translateX(7.045px) translateY(5.334px) translate(11.465px, 13.178px) scaleX(1) scaleY(1) translate(-11.465px, -13.178px);
  }
  82.22% {
    transform: translateX(7.045px) translateY(5.334px) translate(11.465px, 13.178px) scaleX(1) scaleY(1) translate(-11.465px, -13.178px);
  }
  93.33% {
    transform: translateX(7.045px) translateY(5.334px) translate(11.465px, 13.178px) scaleX(1) scaleY(1) translate(-11.465px, -13.178px);
  }
  100% {
    transform: translateX(7.045px) translateY(5.334px) translate(11.465px, 13.178px) scaleX(1) scaleY(1) translate(-11.465px, -13.178px);
  }
}
#Group_3 {
  transform-origin: 0 0;
  animation: kf_Group_3_transform_0 4.5s linear infinite;
}
@keyframes kf_Vector_214_transform_0 {
  0% {
    transform: translateX(7.92px) translateY(10.221px) translate(10.531px, 10.393px) scaleX(1) scaleY(1) translate(-10.531px, -10.393px);
  }
  11.11% {
    transform: translateX(7.92px) translateY(10.221px) translate(10.531px, 10.393px) scaleX(1) scaleY(1) translate(-10.531px, -10.393px);
  }
  22.22% {
    transform: translateX(7.92px) translateY(10.221px) translate(10.531px, 10.393px) scaleX(1) scaleY(1) translate(-10.531px, -10.393px);
  }
  33.33% {
    transform: translateX(7.92px) translateY(10.221px) translate(10.531px, 10.393px) scaleX(1) scaleY(1) translate(-10.531px, -10.393px);
  }
  43.5% {
    transform: translateX(7.92px) translateY(10.221px) translate(10.531px, 10.393px) scaleX(1) scaleY(1) translate(-10.531px, -10.393px);
  }
  50.17% {
    transform: translateX(7.92px) translateY(10.221px) translate(10.531px, 10.393px) scaleX(1.2) scaleY(1.2) translate(-10.531px, -10.393px);
  }
  56.84% {
    transform: translateX(7.92px) translateY(10.221px) translate(10.531px, 10.393px) scaleX(1) scaleY(1) translate(-10.531px, -10.393px);
  }
  67.95% {
    transform: translateX(7.92px) translateY(10.221px) translate(10.531px, 10.393px) scaleX(1) scaleY(1) translate(-10.531px, -10.393px);
  }
  79.06% {
    transform: translateX(7.92px) translateY(10.221px) translate(10.531px, 10.393px) scaleX(1) scaleY(1) translate(-10.531px, -10.393px);
  }
  90.17% {
    transform: translateX(7.92px) translateY(10.221px) translate(10.531px, 10.393px) scaleX(1) scaleY(1) translate(-10.531px, -10.393px);
  }
  100% {
    transform: translateX(7.92px) translateY(10.221px) translate(10.531px, 10.393px) scaleX(1) scaleY(1) translate(-10.531px, -10.393px);
  }
}
#Vector_214 {
  transform-origin: 0 0;
  animation: kf_Vector_214_transform_0 4.5s linear infinite;
}
@keyframes kf_Group_64_transform_0 {
  0% {
    transform: translateX(8.631px) translateY(10.357px) translate(9.88px, 8.153px) scaleX(1) scaleY(1) translate(-9.88px, -8.153px);
  }
  11.11% {
    transform: translateX(8.631px) translateY(10.357px) translate(9.88px, 8.153px) scaleX(1) scaleY(1) translate(-9.88px, -8.153px);
  }
  22.22% {
    transform: translateX(8.631px) translateY(10.357px) translate(9.88px, 8.153px) scaleX(1) scaleY(1) translate(-9.88px, -8.153px);
  }
  33.33% {
    transform: translateX(8.631px) translateY(10.357px) translate(9.88px, 8.153px) scaleX(1) scaleY(1) translate(-9.88px, -8.153px);
  }
  40% {
    transform: translateX(8.631px) translateY(10.357px) translate(9.88px, 8.153px) scaleX(1) scaleY(1) translate(-9.88px, -8.153px);
  }
  46.67% {
    transform: translateX(8.631px) translateY(10.357px) translate(9.88px, 8.153px) scaleX(1.2) scaleY(1.2) translate(-9.88px, -8.153px);
  }
  53.33% {
    transform: translateX(8.631px) translateY(10.357px) translate(9.88px, 8.153px) scaleX(1) scaleY(1) translate(-9.88px, -8.153px);
  }
  64.44% {
    transform: translateX(8.631px) translateY(10.357px) translate(9.88px, 8.153px) scaleX(1) scaleY(1) translate(-9.88px, -8.153px);
  }
  75.56% {
    transform: translateX(8.631px) translateY(10.357px) translate(9.88px, 8.153px) scaleX(1) scaleY(1) translate(-9.88px, -8.153px);
  }
  86.67% {
    transform: translateX(8.631px) translateY(10.357px) translate(9.88px, 8.153px) scaleX(1) scaleY(1) translate(-9.88px, -8.153px);
  }
  97.78% {
    transform: translateX(8.631px) translateY(10.357px) translate(9.88px, 8.153px) scaleX(1) scaleY(1) translate(-9.88px, -8.153px);
  }
  100% {
    transform: translateX(8.631px) translateY(10.357px) translate(9.88px, 8.153px) scaleX(1) scaleY(1) translate(-9.88px, -8.153px);
  }
}
#Group_64 {
  transform-origin: 0 0;
  animation: kf_Group_64_transform_0 4.5s linear infinite;
}
@keyframes kf_Vector_220_transform_0 {
  0% {
    transform: translateX(8.063px) translateY(9.451px) translate(10.447px, 9.059px) scaleX(1) scaleY(1) translate(-10.447px, -9.059px);
  }
  11.11% {
    transform: translateX(8.063px) translateY(9.451px) translate(10.447px, 9.059px) scaleX(1) scaleY(1) translate(-10.447px, -9.059px);
  }
  22.22% {
    transform: translateX(8.063px) translateY(9.451px) translate(10.447px, 9.059px) scaleX(1) scaleY(1) translate(-10.447px, -9.059px);
  }
  33.33% {
    transform: translateX(8.063px) translateY(9.451px) translate(10.447px, 9.059px) scaleX(1) scaleY(1) translate(-10.447px, -9.059px);
  }
  36.84% {
    transform: translateX(8.063px) translateY(9.451px) translate(10.447px, 9.059px) scaleX(1) scaleY(1) translate(-10.447px, -9.059px);
  }
  43.5% {
    transform: translateX(8.063px) translateY(9.451px) translate(10.447px, 9.059px) scaleX(1.2) scaleY(1.2) translate(-10.447px, -9.059px);
  }
  50.17% {
    transform: translateX(8.063px) translateY(9.451px) translate(10.447px, 9.059px) scaleX(1) scaleY(1) translate(-10.447px, -9.059px);
  }
  61.28% {
    transform: translateX(8.063px) translateY(9.451px) translate(10.447px, 9.059px) scaleX(1) scaleY(1) translate(-10.447px, -9.059px);
  }
  72.39% {
    transform: translateX(8.063px) translateY(9.451px) translate(10.447px, 9.059px) scaleX(1) scaleY(1) translate(-10.447px, -9.059px);
  }
  83.5% {
    transform: translateX(8.063px) translateY(9.451px) translate(10.447px, 9.059px) scaleX(1) scaleY(1) translate(-10.447px, -9.059px);
  }
  94.61% {
    transform: translateX(8.063px) translateY(9.451px) translate(10.447px, 9.059px) scaleX(1) scaleY(1) translate(-10.447px, -9.059px);
  }
  100% {
    transform: translateX(8.063px) translateY(9.451px) translate(10.447px, 9.059px) scaleX(1) scaleY(1) translate(-10.447px, -9.059px);
  }
}
#Vector_220 {
  transform-origin: 0 0;
  animation: kf_Vector_220_transform_0 4.5s linear infinite;
}
@keyframes kf_Group_65_transform_0 {
  0% {
    transform: translateX(7.406px) translateY(6.172px) translate(11.104px, 12.338px) scaleX(1) scaleY(1) translate(-11.104px, -12.338px);
  }
  11.11% {
    transform: translateX(7.406px) translateY(6.172px) translate(11.104px, 12.338px) scaleX(1) scaleY(1) translate(-11.104px, -12.338px);
  }
  22.22% {
    transform: translateX(7.406px) translateY(6.172px) translate(11.104px, 12.338px) scaleX(1) scaleY(1) translate(-11.104px, -12.338px);
  }
  33.33% {
    transform: translateX(7.406px) translateY(6.172px) translate(11.104px, 12.338px) scaleX(1) scaleY(1) translate(-11.104px, -12.338px);
  }
  40% {
    transform: translateX(7.406px) translateY(6.172px) translate(11.104px, 12.338px) scaleX(1.2) scaleY(1.2) translate(-11.104px, -12.338px);
  }
  46.67% {
    transform: translateX(7.406px) translateY(6.172px) translate(11.104px, 12.338px) scaleX(1) scaleY(1) translate(-11.104px, -12.338px);
  }
  57.78% {
    transform: translateX(7.406px) translateY(6.172px) translate(11.104px, 12.338px) scaleX(1) scaleY(1) translate(-11.104px, -12.338px);
  }
  68.89% {
    transform: translateX(7.406px) translateY(6.172px) translate(11.104px, 12.338px) scaleX(1) scaleY(1) translate(-11.104px, -12.338px);
  }
  80% {
    transform: translateX(7.406px) translateY(6.172px) translate(11.104px, 12.338px) scaleX(1) scaleY(1) translate(-11.104px, -12.338px);
  }
  91.11% {
    transform: translateX(7.406px) translateY(6.172px) translate(11.104px, 12.338px) scaleX(1) scaleY(1) translate(-11.104px, -12.338px);
  }
  100% {
    transform: translateX(7.406px) translateY(6.172px) translate(11.104px, 12.338px) scaleX(1) scaleY(1) translate(-11.104px, -12.338px);
  }
}
#Group_65 {
  transform-origin: 0 0;
  animation: kf_Group_65_transform_0 4.5s linear infinite;
}
@keyframes kf_Group_66_transform_0 {
  0% {
    transform: translateX(5.271px) translateY(10.908px) translate(13.238px, 7.602px) scaleX(1) scaleY(1) translate(-13.238px, -7.602px);
  }
  11.11% {
    transform: translateX(5.271px) translateY(10.908px) translate(13.238px, 7.602px) scaleX(1) scaleY(1) translate(-13.238px, -7.602px);
  }
  22.22% {
    transform: translateX(5.271px) translateY(10.908px) translate(13.238px, 7.602px) scaleX(1) scaleY(1) translate(-13.238px, -7.602px);
  }
  30.17% {
    transform: translateX(5.271px) translateY(10.908px) translate(13.238px, 7.602px) scaleX(1) scaleY(1) translate(-13.238px, -7.602px);
  }
  36.84% {
    transform: translateX(5.271px) translateY(10.908px) translate(13.238px, 7.602px) scaleX(1.2) scaleY(1.2) translate(-13.238px, -7.602px);
  }
  43.5% {
    transform: translateX(5.271px) translateY(10.908px) translate(13.238px, 7.602px) scaleX(1) scaleY(1) translate(-13.238px, -7.602px);
  }
  54.61% {
    transform: translateX(5.271px) translateY(10.908px) translate(13.238px, 7.602px) scaleX(1) scaleY(1) translate(-13.238px, -7.602px);
  }
  65.73% {
    transform: translateX(5.271px) translateY(10.908px) translate(13.238px, 7.602px) scaleX(1) scaleY(1) translate(-13.238px, -7.602px);
  }
  76.84% {
    transform: translateX(5.271px) translateY(10.908px) translate(13.238px, 7.602px) scaleX(1) scaleY(1) translate(-13.238px, -7.602px);
  }
  87.95% {
    transform: translateX(5.271px) translateY(10.908px) translate(13.238px, 7.602px) scaleX(1) scaleY(1) translate(-13.238px, -7.602px);
  }
  99.06% {
    transform: translateX(5.271px) translateY(10.908px) translate(13.238px, 7.602px) scaleX(1) scaleY(1) translate(-13.238px, -7.602px);
  }
  100% {
    transform: translateX(5.271px) translateY(10.908px) translate(13.238px, 7.602px) scaleX(1) scaleY(1) translate(-13.238px, -7.602px);
  }
}
#Group_66 {
  transform-origin: 0 0;
  animation: kf_Group_66_transform_0 4.5s linear infinite;
}
@keyframes kf_Group_67_transform_0 {
  0% {
    transform: translateX(3.111px) translateY(6.703px) translate(15.398px, 11.808px) scaleX(1) scaleY(1) translate(-15.398px, -11.808px);
  }
  11.11% {
    transform: translateX(3.111px) translateY(6.703px) translate(15.398px, 11.808px) scaleX(1) scaleY(1) translate(-15.398px, -11.808px);
  }
  22.22% {
    transform: translateX(3.111px) translateY(6.703px) translate(15.398px, 11.808px) scaleX(1) scaleY(1) translate(-15.398px, -11.808px);
  }
  26.67% {
    transform: translateX(3.111px) translateY(6.703px) translate(15.398px, 11.808px) scaleX(1) scaleY(1) translate(-15.398px, -11.808px);
  }
  33.33% {
    transform: translateX(3.111px) translateY(6.703px) translate(15.398px, 11.808px) scaleX(1.2) scaleY(1.2) translate(-15.398px, -11.808px);
  }
  40% {
    transform: translateX(3.111px) translateY(6.703px) translate(15.398px, 11.808px) scaleX(1) scaleY(1) translate(-15.398px, -11.808px);
  }
  51.11% {
    transform: translateX(3.111px) translateY(6.703px) translate(15.398px, 11.808px) scaleX(1) scaleY(1) translate(-15.398px, -11.808px);
  }
  62.22% {
    transform: translateX(3.111px) translateY(6.703px) translate(15.398px, 11.808px) scaleX(1) scaleY(1) translate(-15.398px, -11.808px);
  }
  73.33% {
    transform: translateX(3.111px) translateY(6.703px) translate(15.398px, 11.808px) scaleX(1) scaleY(1) translate(-15.398px, -11.808px);
  }
  84.44% {
    transform: translateX(3.111px) translateY(6.703px) translate(15.398px, 11.808px) scaleX(1) scaleY(1) translate(-15.398px, -11.808px);
  }
  95.56% {
    transform: translateX(3.111px) translateY(6.703px) translate(15.398px, 11.808px) scaleX(1) scaleY(1) translate(-15.398px, -11.808px);
  }
  100% {
    transform: translateX(3.111px) translateY(6.703px) translate(15.398px, 11.808px) scaleX(1) scaleY(1) translate(-15.398px, -11.808px);
  }
}
#Group_67 {
  transform-origin: 0 0;
  animation: kf_Group_67_transform_0 4.5s linear infinite;
}
@keyframes kf_Group_3_2_transform_0 {
  0% {
    transform: translateX(7.045px) translateY(5.332px) translate(11.465px, 13.178px) scaleX(1) scaleY(1) translate(-11.465px, -13.178px);
  }
  11.11% {
    transform: translateX(7.045px) translateY(5.332px) translate(11.465px, 13.178px) scaleX(1) scaleY(1) translate(-11.465px, -13.178px);
  }
  22.22% {
    transform: translateX(7.045px) translateY(5.332px) translate(11.465px, 13.178px) scaleX(1) scaleY(1) translate(-11.465px, -13.178px);
  }
  23.5% {
    transform: translateX(7.045px) translateY(5.332px) translate(11.465px, 13.178px) scaleX(1) scaleY(1) translate(-11.465px, -13.178px);
  }
  30.17% {
    transform: translateX(7.045px) translateY(5.332px) translate(11.465px, 13.178px) scaleX(1.2) scaleY(1.2) translate(-11.465px, -13.178px);
  }
  36.84% {
    transform: translateX(7.045px) translateY(5.332px) translate(11.465px, 13.178px) scaleX(1) scaleY(1) translate(-11.465px, -13.178px);
  }
  47.95% {
    transform: translateX(7.045px) translateY(5.332px) translate(11.465px, 13.178px) scaleX(1) scaleY(1) translate(-11.465px, -13.178px);
  }
  59.06% {
    transform: translateX(7.045px) translateY(5.332px) translate(11.465px, 13.178px) scaleX(1) scaleY(1) translate(-11.465px, -13.178px);
  }
  70.17% {
    transform: translateX(7.045px) translateY(5.332px) translate(11.465px, 13.178px) scaleX(1) scaleY(1) translate(-11.465px, -13.178px);
  }
  81.28% {
    transform: translateX(7.045px) translateY(5.332px) translate(11.465px, 13.178px) scaleX(1) scaleY(1) translate(-11.465px, -13.178px);
  }
  92.39% {
    transform: translateX(7.045px) translateY(5.332px) translate(11.465px, 13.178px) scaleX(1) scaleY(1) translate(-11.465px, -13.178px);
  }
  100% {
    transform: translateX(7.045px) translateY(5.332px) translate(11.465px, 13.178px) scaleX(1) scaleY(1) translate(-11.465px, -13.178px);
  }
}
#Group_3_2 {
  transform-origin: 0 0;
  animation: kf_Group_3_2_transform_0 4.5s linear infinite;
}
@keyframes kf_Group_68_transform_0 {
  0% {
    transform: translateX(10.082px) translateY(5.488px) translate(8.429px, 13.021px) scaleX(1) scaleY(1) translate(-8.429px, -13.021px);
  }
  11.11% {
    transform: translateX(10.082px) translateY(5.488px) translate(8.429px, 13.021px) scaleX(1) scaleY(1) translate(-8.429px, -13.021px);
  }
  19.79% {
    transform: translateX(10.082px) translateY(5.488px) translate(8.429px, 13.021px) scaleX(1) scaleY(1) translate(-8.429px, -13.021px);
  }
  26.46% {
    transform: translateX(10.082px) translateY(5.488px) translate(8.429px, 13.021px) scaleX(1.2) scaleY(1.2) translate(-8.429px, -13.021px);
  }
  33.12% {
    transform: translateX(10.082px) translateY(5.488px) translate(8.429px, 13.021px) scaleX(1) scaleY(1) translate(-8.429px, -13.021px);
  }
  44.23% {
    transform: translateX(10.082px) translateY(5.488px) translate(8.429px, 13.021px) scaleX(1) scaleY(1) translate(-8.429px, -13.021px);
  }
  55.35% {
    transform: translateX(10.082px) translateY(5.488px) translate(8.429px, 13.021px) scaleX(1) scaleY(1) translate(-8.429px, -13.021px);
  }
  66.46% {
    transform: translateX(10.082px) translateY(5.488px) translate(8.429px, 13.021px) scaleX(1) scaleY(1) translate(-8.429px, -13.021px);
  }
  77.57% {
    transform: translateX(10.082px) translateY(5.488px) translate(8.429px, 13.021px) scaleX(1) scaleY(1) translate(-8.429px, -13.021px);
  }
  88.68% {
    transform: translateX(10.082px) translateY(5.488px) translate(8.429px, 13.021px) scaleX(1) scaleY(1) translate(-8.429px, -13.021px);
  }
  99.79% {
    transform: translateX(10.082px) translateY(5.488px) translate(8.429px, 13.021px) scaleX(1) scaleY(1) translate(-8.429px, -13.021px);
  }
  100% {
    transform: translateX(10.082px) translateY(5.488px) translate(8.429px, 13.021px) scaleX(1) scaleY(1) translate(-8.429px, -13.021px);
  }
}
#Group_68 {
  transform-origin: 0 0;
  animation: kf_Group_68_transform_0 4.5s linear infinite;
}
</style>
<g id="iPhone_16_-_45">
<g id="Frame_1321317034" filter="url(#filter0_d_3943_17812)">
<rect width="329" height="265" rx="28" id="Frame_1321317034_bg_0" fill="white" shape-rendering="crispEdges">
</rect>
<rect x="0.5" y="0.5" width="328" height="264" rx="27.5" stroke="black" stroke-opacity="0.05" shape-rendering="crispEdges"/>
<g id="Frame_42" transform="translate(24 24)">
<g id="Frame_43">
<path id="January" d="M5.07881 3.81254H6.6109V11.0353C6.6109 11.6886 6.48157 12.2474 6.22291 12.7116C5.96756 13.1759 5.60775 13.5308 5.14347 13.7762C4.6792 14.0182 4.13534 14.1393 3.51189 14.1393C2.93818 14.1393 2.42251 14.0348 1.96487 13.8259C1.51054 13.617 1.15073 13.3135 0.885433 12.9156C0.623451 12.5143 0.49246 12.0268 0.49246 11.4531H2.01958C2.01958 11.735 2.08425 11.9788 2.21358 12.1844C2.34623 12.39 2.52697 12.5508 2.75579 12.6669C2.98792 12.7796 3.25322 12.836 3.55168 12.836C3.87667 12.836 4.15192 12.768 4.37742 12.6321C4.60624 12.4928 4.78035 12.2888 4.89973 12.0202C5.01911 11.7516 5.07881 11.4233 5.07881 11.0353V3.81254ZM10.9523 14.1691C10.4681 14.1691 10.0304 14.0796 9.63904 13.9005C9.24772 13.7181 8.93765 13.4545 8.70883 13.1096C8.48333 12.7647 8.37058 12.3419 8.37058 11.8411C8.37058 11.41 8.45348 11.0552 8.6193 10.7766C8.78511 10.4981 9.00895 10.2775 9.29083 10.115C9.57271 9.95254 9.88775 9.82984 10.236 9.74694C10.5842 9.66403 10.939 9.60102 11.3005 9.55791C11.7581 9.50485 12.1295 9.46174 12.4147 9.42858C12.6999 9.3921 12.9072 9.33406 13.0365 9.25447C13.1658 9.17489 13.2305 9.04555 13.2305 8.86648V8.83166C13.2305 8.39723 13.1078 8.06063 12.8624 7.82186C12.6203 7.58309 12.2589 7.46371 11.778 7.46371C11.2773 7.46371 10.8826 7.5748 10.5941 7.79699C10.3089 8.01586 10.1116 8.25961 10.0022 8.52822L8.60437 8.20986C8.77018 7.74559 9.01227 7.37086 9.33063 7.08566C9.6523 6.79715 10.0221 6.58823 10.4399 6.45889C10.8578 6.32624 11.2972 6.25992 11.7581 6.25992C12.0632 6.25992 12.3865 6.2964 12.7281 6.36935C13.073 6.439 13.3947 6.56833 13.6931 6.75735C13.9949 6.94638 14.242 7.21665 14.4343 7.56817C14.6266 7.91638 14.7228 8.36904 14.7228 8.92617V14H13.2703V12.9554H13.2106C13.1144 13.1477 12.9702 13.3368 12.7778 13.5225C12.5855 13.7082 12.3384 13.8624 12.0367 13.9851C11.7349 14.1078 11.3734 14.1691 10.9523 14.1691ZM11.2756 12.9753C11.6868 12.9753 12.0383 12.894 12.3302 12.7315C12.6253 12.569 12.8491 12.3568 13.0017 12.0948C13.1576 11.8295 13.2355 11.546 13.2355 11.2442V10.2593C13.1824 10.3124 13.0796 10.3621 12.9271 10.4085C12.7778 10.4516 12.6071 10.4898 12.4147 10.5229C12.2224 10.5528 12.035 10.581 11.8526 10.6075C11.6702 10.6307 11.5177 10.6506 11.395 10.6672C11.1065 10.7037 10.8428 10.765 10.6041 10.8512C10.3686 10.9375 10.1796 11.0618 10.037 11.2243C9.8977 11.3835 9.82806 11.5957 9.82806 11.861C9.82806 12.2291 9.96403 12.5077 10.236 12.6967C10.5079 12.8824 10.8544 12.9753 11.2756 12.9753ZM18.1912 9.4634V14H16.7039V6.35941H18.1315V7.60299H18.226C18.4018 7.19841 18.677 6.87342 19.0517 6.62802C19.4298 6.38262 19.9057 6.25992 20.4794 6.25992C21 6.25992 21.456 6.36935 21.8473 6.58823C22.2386 6.80378 22.5421 7.12546 22.7576 7.55325C22.9732 7.98104 23.081 8.50998 23.081 9.14006V14H21.5936V9.31914C21.5936 8.76533 21.4494 8.33256 21.1609 8.02084C20.8724 7.7058 20.4761 7.54827 19.972 7.54827C19.6271 7.54827 19.3204 7.62289 19.0517 7.77212C18.7864 7.92135 18.5759 8.14022 18.42 8.42873C18.2675 8.71393 18.1912 9.05882 18.1912 9.4634ZM29.9157 10.8313V6.35941H31.408V14H29.9456V12.6768H29.866C29.6902 13.0847 29.4083 13.4246 29.0203 13.6966C28.6356 13.9652 28.1564 14.0995 27.5827 14.0995C27.0919 14.0995 26.6575 13.9917 26.2795 13.7762C25.9047 13.5573 25.6096 13.234 25.394 12.8062C25.1818 12.3784 25.0757 11.8494 25.0757 11.2193V6.35941H26.563V11.0403C26.563 11.5609 26.7073 11.9754 26.9958 12.2839C27.2843 12.5923 27.659 12.7465 28.12 12.7465C28.3985 12.7465 28.6754 12.6768 28.9507 12.5375C29.2292 12.3983 29.4597 12.1877 29.6421 11.9058C29.8278 11.6239 29.919 11.2658 29.9157 10.8313ZM35.63 14.1691C35.1458 14.1691 34.7081 14.0796 34.3168 13.9005C33.9254 13.7181 33.6154 13.4545 33.3866 13.1096C33.1611 12.7647 33.0483 12.3419 33.0483 11.8411C33.0483 11.41 33.1312 11.0552 33.297 10.7766C33.4628 10.4981 33.6867 10.2775 33.9686 10.115C34.2504 9.95254 34.5655 9.82984 34.9137 9.74694C35.2619 9.66403 35.6167 9.60102 35.9782 9.55791C36.4358 9.50485 36.8072 9.46174 37.0924 9.42858C37.3776 9.3921 37.5849 9.33406 37.7142 9.25447C37.8436 9.17489 37.9082 9.04555 37.9082 8.86648V8.83166C37.9082 8.39723 37.7855 8.06063 37.5401 7.82186C37.2981 7.58309 36.9366 7.46371 36.4557 7.46371C35.955 7.46371 35.5603 7.5748 35.2718 7.79699C34.9866 8.01586 34.7893 8.25961 34.6799 8.52822L33.2821 8.20986C33.4479 7.74559 33.69 7.37086 34.0084 7.08566C34.33 6.79715 34.6998 6.58823 35.1176 6.45889C35.5355 6.32624 35.9749 6.25992 36.4358 6.25992C36.7409 6.25992 37.0643 6.2964 37.4058 6.36935C37.7507 6.439 38.0724 6.56833 38.3709 6.75735C38.6726 6.94638 38.9197 7.21665 39.112 7.56817C39.3044 7.91638 39.4005 8.36904 39.4005 8.92617V14H37.948V12.9554H37.8883C37.7922 13.1477 37.6479 13.3368 37.4556 13.5225C37.2632 13.7082 37.0162 13.8624 36.7144 13.9851C36.4126 14.1078 36.0511 14.1691 35.63 14.1691ZM35.9533 12.9753C36.3645 12.9753 36.7161 12.894 37.0079 12.7315C37.303 12.569 37.5269 12.3568 37.6794 12.0948C37.8353 11.8295 37.9132 11.546 37.9132 11.2442V10.2593C37.8602 10.3124 37.7573 10.3621 37.6048 10.4085C37.4556 10.4516 37.2848 10.4898 37.0924 10.5229C36.9001 10.5528 36.7127 10.581 36.5303 10.6075C36.348 10.6307 36.1954 10.6506 36.0727 10.6672C35.7842 10.7037 35.5206 10.765 35.2818 10.8512C35.0463 10.9375 34.8573 11.0618 34.7147 11.2243C34.5754 11.3835 34.5058 11.5957 34.5058 11.861C34.5058 12.2291 34.6418 12.5077 34.9137 12.6967C35.1856 12.8824 35.5322 12.9753 35.9533 12.9753ZM41.3816 14V6.35941H42.8192V7.57315H42.8988C43.038 7.16193 43.2834 6.8386 43.635 6.60315C43.9898 6.36438 44.3911 6.245 44.8387 6.245C44.9316 6.245 45.041 6.24831 45.1671 6.25494C45.2964 6.26158 45.3975 6.26987 45.4705 6.27982V7.70248C45.4108 7.6859 45.3047 7.66766 45.1521 7.64776C44.9996 7.62455 44.847 7.61294 44.6945 7.61294C44.343 7.61294 44.0296 7.68756 43.7543 7.83679C43.4824 7.9827 43.2669 8.18665 43.1077 8.44863C42.9485 8.7073 42.8689 9.00244 42.8689 9.33406V14H41.3816ZM47.9303 16.8652C47.7081 16.8652 47.5058 16.847 47.3234 16.8105C47.141 16.7773 47.0051 16.7409 46.9155 16.7011L47.2737 15.4824C47.5456 15.5553 47.7877 15.5868 47.9999 15.5769C48.2122 15.5669 48.3995 15.4873 48.562 15.3381C48.7279 15.1889 48.8738 14.9451 48.9998 14.6069L49.1838 14.0995L46.3883 6.35941H47.98L49.9151 12.2888H49.9947L51.9297 6.35941H53.5264L50.3777 15.0197C50.2318 15.4177 50.0461 15.7543 49.8206 16.0295C49.595 16.3081 49.3264 16.517 49.0147 16.6563C48.703 16.7956 48.3415 16.8652 47.9303 16.8652Z" fill="black"/>
<path id="_9_thoughts" opacity="0.7" transform="translate(218 1)" d="M3.7606 2.9641C4.12622 2.967 4.49183 3.03664 4.85745 3.17302C5.22306 3.3094 5.55676 3.53574 5.85854 3.85202C6.16031 4.16541 6.4026 4.59341 6.58541 5.13603C6.76822 5.67864 6.85962 6.35909 6.85962 7.17737C6.85962 7.96954 6.78418 8.6732 6.63329 9.28836C6.4853 9.90062 6.27058 10.4171 5.98911 10.8379C5.71055 11.2586 5.37105 11.5778 4.97061 11.7954C4.57308 12.0131 4.12332 12.1219 3.62132 12.1219C3.12223 12.1219 2.67682 12.0232 2.28509 11.8259C1.89626 11.6257 1.57707 11.3486 1.32753 10.9946C1.08088 10.6377 0.922741 10.2242 0.8531 9.75408H1.91512C2.01088 10.1632 2.20094 10.5013 2.48531 10.7682C2.77258 11.0323 3.15125 11.1643 3.62132 11.1643C4.30903 11.1643 4.85164 10.864 5.24918 10.2633C5.64961 9.66268 5.84983 8.81393 5.84983 7.71709H5.78019C5.61769 7.96083 5.42473 8.17121 5.2013 8.34821C4.97787 8.52521 4.72977 8.66159 4.45701 8.75735C4.18425 8.8531 3.89408 8.90098 3.5865 8.90098C3.0758 8.90098 2.60718 8.77476 2.18063 8.52231C1.75698 8.26696 1.41748 7.91731 1.16213 7.47335C0.909683 7.02648 0.783459 6.51578 0.783459 5.94125C0.783459 5.39573 0.905331 4.89663 1.14907 4.44397C1.39572 3.9884 1.74102 3.62569 2.18498 3.35583C2.63184 3.08597 3.15705 2.9554 3.7606 2.9641ZM3.7606 3.92166C3.39499 3.92166 3.06565 4.01307 2.77258 4.19587C2.48241 4.37578 2.25172 4.61952 2.08052 4.9271C1.91222 5.23178 1.82807 5.56983 1.82807 5.94125C1.82807 6.31267 1.90932 6.65071 2.07181 6.95539C2.23721 7.25717 2.46209 7.49801 2.74646 7.67792C3.03373 7.85492 3.36017 7.94342 3.72578 7.94342C4.00145 7.94342 4.25825 7.88974 4.49619 7.78238C4.73413 7.67211 4.9416 7.52267 5.1186 7.33406C5.29851 7.14255 5.43924 6.92638 5.5408 6.68553C5.64236 6.44179 5.69314 6.18789 5.69314 5.92384C5.69314 5.57563 5.60899 5.24919 5.44069 4.94451C5.27529 4.63983 5.04606 4.39319 4.75299 4.20458C4.46282 4.01597 4.13202 3.92166 3.7606 3.92166ZM14.9434 5.31448V6.18499H11.4788V5.31448H14.9434ZM12.4886 3.71274H13.5158V10.0849C13.5158 10.375 13.5578 10.5927 13.642 10.7378C13.729 10.8799 13.8393 10.9757 13.9728 11.025C14.1092 11.0715 14.2528 11.0947 14.4037 11.0947C14.5168 11.0947 14.6097 11.0889 14.6822 11.0773C14.7548 11.0628 14.8128 11.0511 14.8563 11.0424L15.0653 11.9652C14.9956 11.9913 14.8984 12.0174 14.7736 12.0435C14.6489 12.0725 14.4907 12.0871 14.2992 12.0871C14.0091 12.0871 13.7247 12.0247 13.4461 11.8999C13.1705 11.7751 12.9412 11.5851 12.7584 11.3297C12.5785 11.0744 12.4886 10.7523 12.4886 10.3634V3.71274ZM17.6594 7.97824V12H16.6322V3.08597H17.6594V6.35909H17.7464C17.9031 6.01379 18.1382 5.73958 18.4516 5.53646C18.7678 5.33044 19.1886 5.22743 19.7138 5.22743C20.1694 5.22743 20.5683 5.31883 20.9107 5.50164C21.2531 5.68155 21.5187 5.95866 21.7073 6.33298C21.8988 6.70439 21.9945 7.17737 21.9945 7.75191V12H20.9673V7.82155C20.9673 7.29054 20.8295 6.87995 20.5538 6.58978C20.2811 6.29671 19.9024 6.15017 19.4178 6.15017C19.0812 6.15017 18.7794 6.22126 18.5125 6.36344C18.2484 6.50563 18.0395 6.7131 17.8857 6.98586C17.7348 7.25862 17.6594 7.58941 17.6594 7.97824ZM26.5897 12.1393C25.9862 12.1393 25.4566 11.9956 25.0011 11.7084C24.5484 11.4211 24.1944 11.0192 23.939 10.5027C23.6866 9.98622 23.5604 9.38267 23.5604 8.69206C23.5604 7.99565 23.6866 7.38775 23.939 6.86834C24.1944 6.34894 24.5484 5.9456 25.0011 5.65833C25.4566 5.37106 25.9862 5.22743 26.5897 5.22743C27.1933 5.22743 27.7214 5.37106 28.1741 5.65833C28.6296 5.9456 28.9836 6.34894 29.2361 6.86834C29.4914 7.38775 29.6191 7.99565 29.6191 8.69206C29.6191 9.38267 29.4914 9.98622 29.2361 10.5027C28.9836 11.0192 28.6296 11.4211 28.1741 11.7084C27.7214 11.9956 27.1933 12.1393 26.5897 12.1393ZM26.5897 11.2165C27.0482 11.2165 27.4254 11.099 27.7214 10.864C28.0174 10.6289 28.2365 10.3199 28.3786 9.93689C28.5208 9.55387 28.5919 9.13892 28.5919 8.69206C28.5919 8.2452 28.5208 7.8288 28.3786 7.44288C28.2365 7.05695 28.0174 6.74502 27.7214 6.50708C27.4254 6.26914 27.0482 6.15017 26.5897 6.15017C26.1313 6.15017 25.7541 6.26914 25.4581 6.50708C25.1621 6.74502 24.943 7.05695 24.8008 7.44288C24.6587 7.8288 24.5876 8.2452 24.5876 8.69206C24.5876 9.13892 24.6587 9.55387 24.8008 9.93689C24.943 10.3199 25.1621 10.6289 25.4581 10.864C25.7541 11.099 26.1313 11.2165 26.5897 11.2165ZM35.4004 9.2666V5.31448H36.4276V12H35.4004V10.8683H35.3308C35.1741 11.2078 34.9303 11.4966 34.5995 11.7345C34.2687 11.9695 33.8509 12.0871 33.346 12.0871C32.9281 12.0871 32.5567 11.9956 32.2317 11.8128C31.9067 11.6271 31.6514 11.3486 31.4657 10.9772C31.28 10.6028 31.1871 10.1313 31.1871 9.56257V5.31448H32.2143V9.49293C32.2143 9.98042 32.3507 10.3692 32.6235 10.6594C32.8991 10.9496 33.2502 11.0947 33.6768 11.0947C33.9321 11.0947 34.1918 11.0294 34.4559 10.8988C34.7228 10.7682 34.9463 10.568 35.1262 10.2982C35.309 10.0283 35.4004 9.68444 35.4004 9.2666ZM41.0076 14.6464C40.5114 14.6464 40.0848 14.5825 39.7279 14.4548C39.371 14.3301 39.0736 14.1647 38.8356 13.9586C38.6006 13.7555 38.4134 13.5379 38.2742 13.3058L39.0924 12.7312C39.1853 12.8531 39.3028 12.9924 39.445 13.1491C39.5872 13.3087 39.7816 13.4465 40.0282 13.5626C40.2778 13.6815 40.6042 13.741 41.0076 13.741C41.5473 13.741 41.9927 13.6104 42.3438 13.3493C42.6949 13.0881 42.8705 12.679 42.8705 12.1219V10.7639H42.7834C42.708 10.8857 42.6006 11.0366 42.4613 11.2165C42.3249 11.3935 42.1276 11.5517 41.8694 11.691C41.614 11.8273 41.2687 11.8955 40.8335 11.8955C40.2938 11.8955 39.8092 11.7679 39.3797 11.5125C38.9532 11.2572 38.6151 10.8857 38.3656 10.3983C38.1189 9.91077 37.9956 9.31883 37.9956 8.62242C37.9956 7.93762 38.116 7.34132 38.3569 6.83352C38.5977 6.32282 38.9329 5.92819 39.3623 5.64963C39.7918 5.36816 40.2879 5.22743 40.8509 5.22743C41.2861 5.22743 41.6314 5.29997 41.8868 5.44506C42.145 5.58724 42.3424 5.74974 42.4787 5.93254C42.618 6.11245 42.7254 6.26043 42.8008 6.3765H42.9053V5.31448H43.8977V12.1915C43.8977 12.766 43.7671 13.2332 43.5059 13.593C43.2477 13.9557 42.8995 14.2213 42.4613 14.3896C42.0261 14.5608 41.5415 14.6464 41.0076 14.6464ZM40.9727 10.9728C41.3848 10.9728 41.733 10.8785 42.0174 10.6899C42.3017 10.5013 42.5179 10.23 42.6659 9.87595C42.8139 9.52195 42.8879 9.0983 42.8879 8.60501C42.8879 8.12333 42.8153 7.69823 42.6702 7.32971C42.5252 6.9612 42.3104 6.67248 42.0261 6.46355C41.7417 6.25463 41.3906 6.15017 40.9727 6.15017C40.5375 6.15017 40.1748 6.26043 39.8846 6.48096C39.5973 6.70149 39.3812 6.99747 39.2361 7.36888C39.0939 7.7403 39.0228 8.15234 39.0228 8.60501C39.0228 9.06928 39.0953 9.47987 39.2404 9.83678C39.3884 10.1908 39.606 10.4694 39.8933 10.6725C40.1835 10.8727 40.5433 10.9728 40.9727 10.9728ZM46.8052 7.97824V12H45.778V3.08597H46.8052V6.35909H46.8922C47.0489 6.01379 47.2839 5.73958 47.5973 5.53646C47.9136 5.33044 48.3344 5.22743 48.8596 5.22743C49.3151 5.22743 49.7141 5.31883 50.0565 5.50164C50.3989 5.68155 50.6644 5.95866 50.853 6.33298C51.0446 6.70439 51.1403 7.17737 51.1403 7.75191V12H50.1131V7.82155C50.1131 7.29054 49.9753 6.87995 49.6996 6.58978C49.4269 6.29671 49.0482 6.15017 48.5636 6.15017C48.227 6.15017 47.9252 6.22126 47.6583 6.36344C47.3942 6.50563 47.1853 6.7131 47.0315 6.98586C46.8806 7.25862 46.8052 7.58941 46.8052 7.97824ZM55.927 5.31448V6.18499H52.4624V5.31448H55.927ZM53.4722 3.71274H54.4994V10.0849C54.4994 10.375 54.5415 10.5927 54.6256 10.7378C54.7127 10.8799 54.8229 10.9757 54.9564 11.025C55.0928 11.0715 55.2364 11.0947 55.3873 11.0947C55.5005 11.0947 55.5933 11.0889 55.6659 11.0773C55.7384 11.0628 55.7965 11.0511 55.84 11.0424L56.0489 11.9652C55.9793 11.9913 55.8821 12.0174 55.7573 12.0435C55.6325 12.0725 55.4744 12.0871 55.2829 12.0871C54.9927 12.0871 54.7083 12.0247 54.4298 11.8999C54.1541 11.7751 53.9249 11.5851 53.742 11.3297C53.5621 11.0744 53.4722 10.7523 53.4722 10.3634V3.71274ZM62.0881 6.81176L61.1653 7.07291C61.1073 6.91912 61.0217 6.76968 60.9085 6.6246C60.7983 6.47661 60.6474 6.35474 60.4559 6.25898C60.2643 6.16323 60.0192 6.11535 59.7203 6.11535C59.3111 6.11535 58.9702 6.20965 58.6974 6.39827C58.4276 6.58397 58.2926 6.82046 58.2926 7.10773C58.2926 7.36308 58.3855 7.56475 58.5712 7.71274C58.7569 7.86072 59.0471 7.98405 59.4417 8.0827L60.4341 8.32645C61.0318 8.47153 61.4773 8.69351 61.7703 8.99239C62.0634 9.28836 62.2099 9.66993 62.2099 10.1371C62.2099 10.5201 62.0997 10.8625 61.8791 11.1643C61.6615 11.4661 61.3568 11.704 60.9651 11.8781C60.5734 12.0522 60.1178 12.1393 59.5984 12.1393C58.9165 12.1393 58.3521 11.9913 57.9053 11.6953C57.4584 11.3993 57.1755 10.967 57.0565 10.3983L58.0315 10.1545C58.1243 10.5143 58.2999 10.7842 58.5581 10.9641C58.8193 11.144 59.1602 11.234 59.581 11.234C60.0598 11.234 60.4399 11.1324 60.7214 10.9293C61.0057 10.7233 61.1479 10.4766 61.1479 10.1893C61.1479 9.9572 61.0667 9.76279 60.9042 9.6061C60.7417 9.4465 60.4921 9.32753 60.1555 9.24919L59.0413 8.98803C58.429 8.84295 57.9793 8.61807 57.692 8.31339C57.4076 8.00581 57.2654 7.62133 57.2654 7.15996C57.2654 6.78274 57.3714 6.44905 57.5832 6.15888C57.7979 5.86871 58.0895 5.64092 58.458 5.47552C58.8295 5.31013 59.2502 5.22743 59.7203 5.22743C60.3819 5.22743 60.9013 5.37251 61.2785 5.66268C61.6586 5.95285 61.9285 6.33588 62.0881 6.81176Z" fill="#392EFF"/>
</g>
<g id="Frame_40" transform="translate(0 27.5058)">
<g id="Frame_27">
<g id="Frame_29">
<path id="Vector_20" transform="translate(18.0206 17.9547)" d="M0 0.635136C0.145086 0.490053 0.328637 0.306502 0.566042 0.105365C0.686826 0.00303312 0.83972 -0.0595016 0.91446 0.0844815C0.9892 0.228465 0.9892 0.591171 0.916658 0.81429C0.844117 1.03741 0.699034 1.10995 0.551753 1.11105C0.404472 1.11215 0.259389 1.03961 0.184649 0.929696C0.109909 0.819785 0.109909 0.674702 0.182451 0.581827C0.338222 0.382393 0.694637 0.379043 0.95073 0.396629C1.07382 0.405082 1.13428 0.595567 1.11724 0.724712C1.10021 0.853857 0.991398 0.962668 0.862803 1.03686C0.734208 1.11105 0.589125 1.14732 0.219827 0.854958" stroke="#392EFF" stroke-width="1.12062" stroke-linecap="round"/>
</g>
<g id="Frame_30" transform="translate(40.6632)">
<path id="Vector_20_2" transform="translate(18.0206 17.9547)" d="M0 0.635136C0.145086 0.490053 0.328637 0.306502 0.566042 0.105365C0.686826 0.00303312 0.83972 -0.0595016 0.91446 0.0844815C0.9892 0.228465 0.9892 0.591171 0.916658 0.81429C0.844117 1.03741 0.699034 1.10995 0.551753 1.11105C0.404472 1.11215 0.259389 1.03961 0.184649 0.929696C0.109909 0.819785 0.109909 0.674702 0.182451 0.581827C0.338222 0.382393 0.694637 0.379043 0.95073 0.396629C1.07382 0.405082 1.13428 0.595567 1.11724 0.724712C1.10021 0.853857 0.991398 0.962668 0.862803 1.03686C0.734208 1.11105 0.589125 1.14732 0.219827 0.854958" stroke="#392EFF" stroke-width="1.12062" stroke-linecap="round"/>
</g>
<g id="Frame_28" transform="translate(81.3265)">
<g id="Group_3" transform="translate(7.04492 5.33398)">
<path id="Vector_6" transform="translate(8.78906 6.17578)" d="M1.46613 0.385121C1.76852 0.0809025 2.98723 -0.164674 4.05842 0.138628C4.78439 0.344183 5.06913 1.17683 5.25239 1.78527C5.49829 2.60167 5.13326 3.37601 4.73741 3.80302C4.02985 4.56627 2.81496 4.35465 1.28835 4.296C0.857683 3.93314 0.672587 3.44199 0.520477 2.9545C0.428844 2.70893 0.307886 2.46702 0 1.66798" stroke="#392EFF" stroke-width="1.57389" stroke-linecap="round"/>
<path id="Vector_7" d="M9.70626 5.0957C9.64579 4.304 9.523 2.8452 9.64396 1.28837C9.69055 0.68869 10.0068 0.517738 10.2524 0.394033C11.1684 -0.0673843 12.206 -0.0357247 13.0298 0.0549914C13.3795 0.0935054 13.5512 0.32714 13.7051 0.54156C14.0158 0.974314 14.1046 2.33573 14.1954 3.86416C14.222 4.31247 14.4675 4.06209 14.6517 3.84675C15.3419 3.03975 16.663 2.53365 17.8872 2.19462C18.2417 2.09644 18.7376 2.16346 19.0775 2.31465C19.709 2.59548 19.9068 3.3217 20.0901 4.02085C20.3751 5.10834 20.0314 6.07068 19.697 6.52792C18.8803 7.64437 17.2861 7.59911 16.1233 7.69166C15.2502 7.76115 18.1915 8.39081 19.324 9.03316C20.4095 9.64879 20.4566 11.0775 20.398 13.5772C20.3846 14.1472 20.0351 14.3763 19.7895 14.5614C18.6644 15.4094 16.7363 14.7501 15.4837 14.2306C14.4021 13.782 13.9232 12.7947 13.6483 12.7919C12.1149 12.7766 13.1297 15.5345 12.2152 16.7285C11.096 18.1897 9.77224 18.3494 8.6415 18.3531C7.40421 18.3571 7.08191 16.7074 6.80518 15.3961C6.49839 13.9425 6.89498 12.7342 6.41299 12.3677C3.18176 9.91049 0.667627 11.0225 0.270856 10.7183C-0.107358 10.4283 -0.00678889 9.74148 0.0839261 9.16236C0.174568 8.58371 0.724433 8.15257 1.12029 7.7558C1.83083 7.04363 3.76847 7.29489 5.48017 7.29489C5.98231 7.29489 5.74041 7.29489 5.49483 7.20417C4.97112 7.01071 4.5162 6.50318 4.14966 5.77378C3.60205 4.68404 4.20648 3.57094 4.60233 3.08345C4.80784 2.83037 5.05866 2.59596 5.48566 2.47134C6.48332 2.18018 7.38246 2.52816 7.80947 2.92401C7.99457 3.13843 8.11553 3.38034 8.20808 3.62592C8.30063 3.87149 8.3611 4.1134 8.42341 4.91244" stroke="#392EFF" stroke-width="1.57389" stroke-linecap="round"/>
<path id="Vector_8" transform="translate(13.1875 15.3594)" d="M0 0C0.0604766 3.60117 0.304216 4.81988 0.396766 6.62138C0.487488 7.26464 0.610278 7.75579 0.701909 8.30375C0.733064 8.60981 0.733064 8.97267 0.733064 9.34653" stroke="#392EFF" stroke-width="1.57389" stroke-linecap="round"/>
<path id="Vector_9" transform="translate(7.23047 18.1074)" d="M5.4088 7.33143C4.44117 6.96857 2.43075 6.78164 0.321364 6.81188C-0.276785 6.82045 0.086783 6.9026 0.394669 6.96399C1.55913 7.1962 2.89807 7.45239 4.24324 7.54494C4.79915 7.58319 5.5261 7.69797 6.2894 7.57701C7.30167 7.41661 7.11684 5.44381 7.84898 4.37263C8.7645 3.03317 10.2873 1.71986 12.3032 0.676157C13.5868 0.0116322 14.7517 -0.182441 15.3015 0.180425C16.2233 0.788847 15.307 2.31913 14.9111 2.86801C14.064 4.04268 12.5012 4.82437 11.4602 6.16497C10.9727 6.83664 10.4816 7.39009 9.9941 7.81709C9.74853 8.00219 9.50662 8.12314 8.70758 8.24776" stroke="#392EFF" stroke-width="1.57389" stroke-linecap="round"/>
</g>
</g>
<g id="Frame_35" transform="translate(121.849)">
<path id="Vector_20_3" transform="translate(18.0206 17.9547)" d="M0 0.635136C0.145086 0.490053 0.328637 0.306502 0.566042 0.105365C0.686826 0.00303312 0.83972 -0.0595016 0.91446 0.0844815C0.9892 0.228465 0.9892 0.591171 0.916658 0.81429C0.844117 1.03741 0.699034 1.10995 0.551753 1.11105C0.404472 1.11215 0.259389 1.03961 0.184649 0.929696C0.109909 0.819785 0.109909 0.674702 0.182451 0.581827C0.338222 0.382393 0.694637 0.379043 0.95073 0.396629C1.07382 0.405082 1.13428 0.595567 1.11724 0.724712C1.10021 0.853857 0.991398 0.962668 0.862803 1.03686C0.734208 1.11105 0.589125 1.14732 0.219827 0.854958" stroke="#392EFF" stroke-width="1.12062" stroke-linecap="round"/>
</g>
<g id="Frame_36" transform="translate(162.512)">
<path id="Vector_20_4" transform="translate(18.0206 17.9547)" d="M0 0.635136C0.145086 0.490053 0.328637 0.306502 0.566042 0.105365C0.686826 0.00303312 0.83972 -0.0595016 0.91446 0.0844815C0.9892 0.228465 0.9892 0.591171 0.916658 0.81429C0.844117 1.03741 0.699034 1.10995 0.551753 1.11105C0.404472 1.11215 0.259389 1.03961 0.184649 0.929696C0.109909 0.819785 0.109909 0.674702 0.182451 0.581827C0.338222 0.382393 0.694637 0.379043 0.95073 0.396629C1.07382 0.405082 1.13428 0.595567 1.11724 0.724712C1.10021 0.853857 0.991398 0.962668 0.862803 1.03686C0.734208 1.11105 0.589125 1.14732 0.219827 0.854958" stroke="#392EFF" stroke-width="1.12062" stroke-linecap="round"/>
</g>
<g id="Frame_37" transform="translate(203.175)">
<path id="Vector_20_5" transform="translate(18.0206 17.9547)" d="M0 0.635136C0.145086 0.490053 0.328637 0.306502 0.566042 0.105365C0.686826 0.00303312 0.83972 -0.0595016 0.91446 0.0844815C0.9892 0.228465 0.9892 0.591171 0.916658 0.81429C0.844117 1.03741 0.699034 1.10995 0.551753 1.11105C0.404472 1.11215 0.259389 1.03961 0.184649 0.929696C0.109909 0.819785 0.109909 0.674702 0.182451 0.581827C0.338222 0.382393 0.694637 0.379043 0.95073 0.396629C1.07382 0.405082 1.13428 0.595567 1.11724 0.724712C1.10021 0.853857 0.991398 0.962668 0.862803 1.03686C0.734208 1.11105 0.589125 1.14732 0.219827 0.854958" stroke="#392EFF" stroke-width="1.12062" stroke-linecap="round"/>
</g>
<g id="Frame_38" transform="translate(243.839)">
<path id="Vector_20_6" transform="translate(18.0206 17.9547)" d="M0 0.635136C0.145086 0.490053 0.328637 0.306502 0.566042 0.105365C0.686826 0.00303312 0.83972 -0.0595016 0.91446 0.0844815C0.9892 0.228465 0.9892 0.591171 0.916658 0.81429C0.844117 1.03741 0.699034 1.10995 0.551753 1.11105C0.404472 1.11215 0.259389 1.03961 0.184649 0.929696C0.109909 0.819785 0.109909 0.674702 0.182451 0.581827C0.338222 0.382393 0.694637 0.379043 0.95073 0.396629C1.07382 0.405082 1.13428 0.595567 1.11724 0.724712C1.10021 0.853857 0.991398 0.962668 0.862803 1.03686C0.734208 1.11105 0.589125 1.14732 0.219827 0.854958" stroke="#392EFF" stroke-width="1.12062" stroke-linecap="round"/>
</g>
</g>
<g id="Frame_28_2" transform="translate(8.54309e-05 48.4019)">
<g id="Frame_28_3">
<path id="Vector_214" transform="translate(7.91992 10.2207)" d="M7.17112 5.0676C7.75209 4.90286 9.26362 4.2301 10.4142 4.08297C11.3038 3.96921 12.4049 4.39357 13.3474 4.97957C14.4073 5.6386 14.4219 7.40908 14.4439 10.5044C14.4572 12.3715 13.6297 13.6966 13.0229 14.6391C12.0486 16.1527 8.72791 15.1704 7.55278 14.8982C6.19027 14.5825 4.86988 13.5809 4.11411 12.8673C3.55069 12.3353 3.39859 11.4847 3.46084 10.8565C3.58209 9.63301 5.78283 8.75964 7.43708 8.25475C8.11013 8.04934 9.67356 8.08562 11.6221 8.21011C12.3351 8.25567 12.4501 8.58359 12.4935 9.25133C12.7032 12.4787 11.5372 14.8183 10.799 15.9853C10.1248 17.0512 7.13842 15.9274 5.81301 15.3603C4.71294 14.8896 4.28136 13.7067 4.04872 12.7843C3.88549 12.1371 4.06884 11.5664 4.21471 11.2319C4.56574 10.427 5.36533 9.8914 6.11984 9.47014C7.24746 8.84055 9.04732 9.09163 10.2904 9.38337C11.3048 9.62146 11.9044 10.4724 12.6381 11.1634C13.6771 12.1418 13.8774 12.9459 13.878 13.364C13.8784 13.5786 13.7127 13.7821 13.5448 13.9305C12.9185 14.4841 10.8757 14.3732 8.85492 14.1443C7.51302 13.9923 5.63193 12.9534 3.51868 11.9286C1.82206 11.1057 0.927582 10.4761 0.550959 10.1838C0.17451 9.89153 0.0875723 9.42864 0.0246978 8.9074C-0.220716 6.8729 1.38155 5.03239 3.99591 2.64501C5.47051 1.29843 8.49402 0.588351 11.2907 0.080316C12.4644 -0.132888 13.3304 0.120556 13.8736 0.350052C14.5363 0.629994 15.1739 1.2083 16.1749 2.1879C17.9106 3.88654 19.2394 5.48258 19.9921 6.46406C20.8914 7.63689 21.171 9.62481 21.0263 11.7796C20.7942 15.239 18.1165 16.2569 17.0048 16.8442C16.0825 17.3314 14.7665 17.4314 12.3156 17.4754C10.2431 17.5127 8.85367 16.5964 6.8253 15.698C4.91031 14.8497 3.4841 14.5002 3.17036 14.2493C2.57662 13.7745 2.43534 12.9094 2.47558 8.94073C2.49799 6.73 3.47907 5.5379 6.02804 2.85627C7.19671 1.62677 8.2991 1.08758 9.13472 0.773203C10.7489 0.165907 11.6101 0.958056 12.6375 1.43968C13.9767 2.06745 15.5864 5.75923 16.2038 8.26481C16.6767 10.1837 16.1422 11.7714 15.8919 12.3152C15.4195 13.3421 13.8862 13.5734 12.1238 14.3914C11.382 14.7357 10.5287 14.7077 9.2152 14.8127C5.13183 15.1391 3.36589 14.2499 2.43659 14.1003C2.29722 14.0778 2.22659 14.3279 2.18384 14.5171C1.96626 15.4803 3.34829 17.9193 4.06759 19.5881C4.4379 20.4472 5.49109 20.4922 7.62257 20.7437C8.82845 20.886 9.64213 20.662 10.1432 20.2866C11.7796 19.0609 13.2826 17.439 14.8991 16.0551C15.5855 15.4675 15.9309 14.9617 16.0774 14.6064C16.7544 12.9649 15.9334 10.0599 15.4518 8.63641C14.9196 7.06348 13.5894 5.82713 12.916 5.21598C12.5407 5.02736 12.1609 4.90035 11.8264 4.81672C11.6579 4.7746 11.4919 4.7331 11.3209 4.69035" stroke="#392EFF" stroke-width="1.75097" stroke-linecap="round" stroke-linejoin="round"/>
</g>
<g id="Frame_30_2" transform="translate(40.5225 5.89622e-05)">
<path id="Vector_20_7" transform="translate(18.091 17.9547)" d="M0 0.635136C0.145086 0.490053 0.328637 0.306502 0.566042 0.105365C0.686826 0.00303312 0.83972 -0.0595016 0.91446 0.0844815C0.9892 0.228465 0.9892 0.591171 0.916658 0.81429C0.844117 1.03741 0.699034 1.10995 0.551753 1.11105C0.404472 1.11215 0.259389 1.03961 0.184649 0.929696C0.109909 0.819785 0.109909 0.674702 0.182451 0.581827C0.338222 0.382393 0.694637 0.379043 0.95073 0.396629C1.07382 0.405082 1.13428 0.595567 1.11724 0.724712C1.10021 0.853857 0.991398 0.962668 0.862803 1.03686C0.734208 1.11105 0.589125 1.14732 0.219827 0.854958" stroke="#392EFF" stroke-width="1.12062" stroke-linecap="round"/>
</g>
<g id="Frame_39" transform="translate(81.3265)">
<g id="Group_64" transform="translate(8.63086 10.3574)">
<path id="Vector_215" transform="translate(6.65034 6.83612)" d="M0 0C0.148834 0.148828 0.337126 0.48595 0.524854 0.973594C0.60096 1.20079 0.63817 1.38682 0.675942 1.55708C0.713714 1.72733 0.750921 1.87616 0.789256 2.0295" stroke="#392EFF" stroke-width="1.75097" stroke-linecap="round" stroke-linejoin="round"/>
<path id="Vector_216" transform="translate(11.8379 5.70898)" d="M0 0C0 0.0744139 0 0.148828 0 0.484823C0 0.820818 0 1.41614 0.225497 2.255" stroke="#392EFF" stroke-width="1.75097" stroke-linecap="round" stroke-linejoin="round"/>
<path id="Vector_217" transform="translate(10.3711 9.88086)" d="M0 0V0.563751" stroke="#392EFF" stroke-width="1.75097" stroke-linecap="round" stroke-linejoin="round"/>
<path id="Vector_218" transform="translate(7.43945 12.1348)" d="M0 0C0.297661 0.297661 0.562623 0.562624 0.787557 0.78756C1.41761 1.41762 3.18857 0.829842 4.07479 0.695107C4.50416 0.629827 4.92154 0.789252 5.25923 0.73344C5.41087 0.677629 5.5225 0.566007 5.61721 0.434089C5.71192 0.302171 5.78633 0.153341 5.863 0" stroke="#392EFF" stroke-width="1.75097" stroke-linecap="round" stroke-linejoin="round"/>
<path id="Vector_219" d="M3.60605 16.3069C2.89347 15.8942 2.21923 15.5943 1.5602 15.2747C0.804588 14.9082 0.487385 14.2052 0.261885 13.6032C0.0490541 13.0349 0.110802 12.0292 0.0172211 11.0674C-0.0867589 9.99879 0.297965 9.24425 0.691465 8.45499C1.07967 7.67636 1.68705 7.10199 1.89563 6.44409C2.16302 5.60076 1.80205 4.29001 1.61488 3.24932C1.49102 2.56061 1.31497 1.57949 1.31272 0.899045C1.31082 0.326961 2.39963 1.57273 3.24581 2.17312C3.97553 2.69088 4.91621 3.07456 5.67051 3.41507C6.42552 3.75589 7.76879 3.00465 8.88276 2.70248C10.0657 2.38161 11.3024 2.5514 12.285 1.95326C13.2205 1.38379 13.5258 0.675236 14.5575 0.147567C14.9164 -0.0359949 15.2554 -0.00351796 15.5367 0.013958C16.4521 0.0708252 15.9702 1.68322 16.0458 2.95955C16.1139 4.11068 16.384 4.65419 16.552 4.97327C16.94 5.71026 17.8847 5.74448 18.5618 6.34487C19.064 6.79018 19.2016 7.54623 19.4841 8.39242C20.0833 10.1877 19.5422 13.0732 19.3736 13.3545C19.0318 13.9249 18.1553 14.4984 17.4766 15.065C16.8988 15.5472 16.2747 15.892 15.654 16.0622C15.2982 16.0814 14.9577 16.1186 14.5648 16.175C14.3207 16.1942 13.9858 16.1942 13.4153 16.3069" stroke="#392EFF" stroke-width="1.75097" stroke-linecap="round" stroke-linejoin="round"/>
</g>
</g>
<g id="Frame_37_2" transform="translate(121.849)">
<path id="Vector_20_8" transform="translate(18.091 17.9547)" d="M0 0.635136C0.145086 0.490053 0.328637 0.306502 0.566042 0.105365C0.686826 0.00303312 0.83972 -0.0595016 0.91446 0.0844815C0.9892 0.228465 0.9892 0.591171 0.916658 0.81429C0.844117 1.03741 0.699034 1.10995 0.551753 1.11105C0.404472 1.11215 0.259389 1.03961 0.184649 0.929696C0.109909 0.819785 0.109909 0.674702 0.182451 0.581827C0.338222 0.382393 0.694637 0.379043 0.95073 0.396629C1.07382 0.405082 1.13428 0.595567 1.11724 0.724712C1.10021 0.853857 0.991398 0.962668 0.862803 1.03686C0.734208 1.11105 0.589125 1.14732 0.219827 0.854958" stroke="#392EFF" stroke-width="1.12062" stroke-linecap="round"/>
</g>
<g id="Frame_40_2" transform="translate(162.653)">
<path id="Vector_220" transform="translate(8.0625 9.45117)" d="M1.49571 5.96209C1.57212 5.96209 2.03176 5.80927 4.29232 4.69896C6.15432 3.78441 9.38019 1.98396 11.206 1.02127C13.0318 0.058571 13.3375 -0.056049 13.3803 0.0186281C13.8557 0.847364 11.5383 1.82419 10.2995 2.85172C9.95175 3.14012 9.49365 3.56086 8.07306 4.78984C4.29566 8.05773 2.2251 9.97728 2.86131 9.68841C3.57092 9.36621 4.26975 8.74424 5.90048 7.57372C8.91692 5.40857 11.0266 3.99503 11.2581 3.91688C12.2199 3.59226 10.0679 6.8038 8.72373 8.66783C6.70751 11.4638 5.04777 13.138 5.02635 13.3325C4.87477 14.709 6.972 12.14 10.5316 9.98422C11.5074 9.39325 13.1742 8.32512 15.642 6.84085C16.6276 6.24809 17.0401 5.92967 17.333 5.6958C17.7941 5.32761 16.6754 6.33605 14.2492 8.47448C12.1918 10.2879 10.7603 11.0158 9.57238 11.7637C5.21547 14.507 4.43183 14.5273 3.64049 14.569C2.94125 14.6059 3.11659 13.4136 3.0014 12.6992C2.94781 12.3669 2.84683 12.0613 2.71253 11.8106C2.57856 11.5606 1.77126 11.6352 0.9035 11.7116C0.402657 11.7557 0.223307 12.3276 0.0496379 12.7513C-0.0274482 12.9394 -0.00940943 13.0986 0.0670043 13.2347C0.413089 13.8508 1.6439 13.7192 2.78431 13.8153C4.03624 13.9208 5.15776 14.1036 6.90254 14.6026C8.21876 14.979 10.443 15.4837 12.024 15.7592C14.4623 16.1842 15.6565 15.882 16.1955 15.4403C17.551 14.3294 17.4337 12.7212 17.5883 10.5903C17.7004 9.04421 17.6653 6.09871 17.6276 4.50676C17.5863 2.75585 17.2427 2.4517 17.0117 2.16284C16.8999 2.02302 16.7807 1.91218 16.5879 1.91044C16.3952 1.9087 16.1277 2.02332 15.8562 2.27341C15.5847 2.52349 15.3173 2.90555 14.6828 4.17216C14.0484 5.43878 13.055 7.57835 12.3713 9.27276C10.6216 13.6092 10.6051 14.796 10.2184 15.3575C10.034 15.6253 10.6792 15.8796 11.0445 16.0336C11.5089 16.2294 12.0292 16.3045 13.7138 16.3624C17.8412 16.5043 20.5227 16.2293 20.3687 15.9022C19.9228 14.9551 20.4416 12.9574 20.7334 11.8888C20.8266 11.5472 20.9464 10.9834 20.87 10.3275C20.8413 10.0815 20.6408 10.0537 20.4665 10.0531C19.4122 10.0496 17.7139 12.0497 16.5503 13.0795C15.3133 14.1744 13.7728 15.2591 12.3071 16.2629C11.2104 17.0139 9.64184 17.3848 9.02359 17.5393C8.06148 17.6557 6.74739 17.7321 5.84085 17.9827C5.62666 18.0412 5.47384 18.0794 5.08482 18.1188" stroke="#392EFF" stroke-width="1.75097" stroke-linecap="round" stroke-linejoin="round"/>
</g>
<g id="Frame_38_2" transform="translate(203.175)">
<path id="Vector_20_9" transform="translate(18.091 17.9547)" d="M0 0.635136C0.145086 0.490053 0.328637 0.306502 0.566042 0.105365C0.686826 0.00303312 0.83972 -0.0595016 0.91446 0.0844815C0.9892 0.228465 0.9892 0.591171 0.916658 0.81429C0.844117 1.03741 0.699034 1.10995 0.551753 1.11105C0.404472 1.11215 0.259389 1.03961 0.184649 0.929696C0.109909 0.819785 0.109909 0.674702 0.182451 0.581827C0.338222 0.382393 0.694637 0.379043 0.95073 0.396629C1.07382 0.405082 1.13428 0.595567 1.11724 0.724712C1.10021 0.853857 0.991398 0.962668 0.862803 1.03686C0.734208 1.11105 0.589125 1.14732 0.219827 0.854958" stroke="#392EFF" stroke-width="1.12062" stroke-linecap="round"/>
</g>
<g id="Frame_41" transform="translate(243.979)">
<g id="Group_65" transform="translate(7.40625 6.17188)">
<path id="Vector_221" transform="translate(0 2.04883)" d="M9.71951 1.39764C9.18147 1.07513 8.31929 0.428504 7.45388 0.101947C6.63776 -0.20601 5.72631 0.208099 3.94606 1.01598C2.88893 1.49571 2.05398 2.36676 1.37576 3.17707C0.9729 3.65839 0.483605 4.04248 0.21377 4.47357C-0.342674 5.36253 0.316684 6.68733 0.723459 7.63296C1.32106 9.0222 2.09936 9.82161 2.61391 10.6052C3.1182 11.3731 4.20293 11.9284 5.17854 12.255C5.59991 12.396 6.09742 12.4178 6.39562 12.4713C7.10801 12.5991 4.80904 13.387 3.86179 13.9283C2.80907 14.5298 2.26791 15.4387 1.69907 16.7579C1.83034 20.5728 2.37163 21.221 2.58717 21.6521C2.69575 21.8693 2.80271 22.0832 3.07498 22.6277" stroke="#392EFF" stroke-width="1.75097" stroke-linecap="round" stroke-linejoin="round"/>
<path id="Vector_222" transform="translate(7.79492 6.78906)" d="M0.142009 0.871906C0.0350499 0.764947 -0.0200503 0.388963 0.00668954 0.00973681C0.0334293 -0.0486057 0.0869089 0.165317 0.141199 0.382479C0.195489 0.599642 0.248968 0.813563 0.304068 0.709847" stroke="#392EFF" stroke-width="1.75097" stroke-linecap="round" stroke-linejoin="round"/>
<path id="Vector_223" transform="translate(11.0156 5.7168)" d="M0 0C0.0534796 0 0.106959 0 0.187989 0.106961C0.269019 0.213922 0.375978 0.427845 0.431078 0.671748C0.486178 0.915652 0.486178 1.18305 0.64825 1.62062" stroke="#392EFF" stroke-width="1.75097" stroke-linecap="round" stroke-linejoin="round"/>
<path id="Vector_224" transform="translate(8.9082 3.07227)" d="M0 0.0509139C0.375982 -0.00256769 1.55904 -0.111152 2.45524 0.345866C3.31757 0.785612 3.88624 1.66829 4.50856 2.74762C5.01125 3.61947 5.02391 5.81383 4.8894 7.47496C4.86185 7.71968 4.86185 7.9336 4.78164 8.12402C4.70142 8.31445 4.54098 8.47489 4.37568 8.64019" stroke="#392EFF" stroke-width="1.75097" stroke-linecap="round" stroke-linejoin="round"/>
<path id="Vector_225" transform="translate(8.00781 10.1582)" d="M2.84519 0.258558C2.84519 0.0446357 2.36386 -0.0655668 1.52762 0.0413945C0.879798 0.124256 0.524457 0.689642 0.173593 0.958663C0.00521687 1.08776 -0.0168293 1.33465 0.00910016 1.55181C0.0350297 1.76897 0.141989 1.9829 0.30405 2.14658C0.680034 2.41722 1.11436 2.5809 1.54545 2.66193C1.76261 2.68949 1.97653 2.68949 2.359 2.2033" stroke="#392EFF" stroke-width="1.75097" stroke-linecap="round" stroke-linejoin="round"/>
<path id="Vector_226" transform="translate(14.2578)" d="M0 10.7398C0.213922 10.3103 0.969127 9.44652 2.3977 7.26598C4.11621 4.64289 4.80351 2.75337 5.37315 1.66755C5.88303 0.695661 6.64291 0.207375 6.96622 0.0445034C7.74975 -0.350206 7.77897 1.98195 7.91347 3.03778C8.07416 4.29923 7.67201 4.95741 7.59017 5.36175C7.42461 6.17974 8.10309 8.77234 7.61933 10.5477C7.36291 11.4888 5.94767 11.871 4.54259 12.6813C3.64005 13.2018 4.15851 14.5709 4.4016 15.4898C4.70199 16.6253 4.80675 17.488 5.0231 18.3534C5.13087 18.7845 5.18597 19.2723 5.21271 19.7844C5.23945 20.0292 5.29293 20.2431 5.34803 20.6255" stroke="#392EFF" stroke-width="1.75097" stroke-linecap="round" stroke-linejoin="round"/>
</g>
</g>
</g>
<g id="Frame_29_2" transform="translate(8.54309e-05 96.8036)">
<g id="Frame_28_4">
<g id="Group_66" transform="translate(5.27148 10.9082)">
<path id="Vector_227" transform="translate(12.2324)" d="M0 3.976C0.444079 3.8654 1.55847 3.08784 3.59539 1.60728C4.02119 1.29779 4.1861 1.13053 4.40981 1.10036C5.41766 0.964474 6.14006 2.12929 7.06257 2.43931C8.23647 2.83381 9.49162 1.24113 10.3588 0.766041C10.775 0.538058 11.1138 0.178681 11.5595 0.0111019C12.0053 -0.0458749 12.4544 0.120029 12.9278 0.426699C13.18 0.567464 13.4565 0.678064 14.2441 0.959597" stroke="#392EFF" stroke-width="1.75097" stroke-linecap="round" stroke-linejoin="round"/>
<path id="Vector_228" transform="translate(15.082 2.21875)" d="M0 0.249686C0.388788 0.417268 1.2803 0.749072 2.14752 1.28113C2.95719 1.77788 3.18231 2.59411 3.54428 2.84547C3.71996 2.96747 3.96155 2.93094 4.15845 2.82034C5.0726 2.30685 5.52673 1.14791 6.22553 0.447432C6.396 0.276556 6.6428 0.196064 6.59085 0.166738C5.74929 -0.308339 4.75252 0.695448 3.44038 0.780076C2.90384 0.81468 2.40476 0.754099 1.87521 0.419782C1.61818 0.257513 1.40096 0.0854646 1.45291 0C2.45502 0.0251352 3.34821 0.47089 3.9892 0.91665C4.29838 1.1412 4.57488 1.36241 5.02734 1.75789" stroke="#392EFF" stroke-width="1.75097" stroke-linecap="round" stroke-linejoin="round"/>
<path id="Vector_229" transform="translate(7.54102 7.69141)" d="M0 7.51336C0.444092 6.90337 1.44788 5.56275 2.03692 4.55645C2.9118 3.0618 7.24943 4.32603 8.54314 4.52461C8.76677 4.55894 8.98889 4.60756 9.24109 4.52544C10.3743 4.15649 11.1641 2.5497 12.0908 1.62299C12.9018 0.811916 13.5705 0.143279 15.2429 0C15.6384 0.02765 15.8596 0.0829499 16.0841 0.139089C16.3087 0.195228 16.5299 0.25053 16.9254 0.307507" stroke="#392EFF" stroke-width="1.75097" stroke-linecap="round" stroke-linejoin="round"/>
<path id="Vector_230" transform="translate(13.5742 11.6855)" d="M0 0.335157C0.276504 0.613339 1.28029 1.1697 2.17516 1.59032C2.41421 1.70268 2.62091 1.95061 2.87312 2.00927C3.85262 1.67746 4.30005 1.11943 4.57823 0.673666C4.74581 0.449111 4.96701 0.227907 5.19492 0" stroke="#392EFF" stroke-width="1.75097" stroke-linecap="round" stroke-linejoin="round"/>
<path id="Vector_231" transform="translate(0 4.14453)" d="M0 4.69219C0.388788 4.46931 1.2803 4.24643 2.59244 4.24475C2.90735 4.24435 3.12366 4.41065 3.32056 4.38468C4.14291 4.2762 4.35368 3.01976 4.94188 2.18187C5.19324 1.3423 5.75128 0.563064 6.6981 0.0569768C7.08855 0 7.64156 0 8.21133 0" stroke="#392EFF" stroke-width="1.75097" stroke-linecap="round" stroke-linejoin="round"/>
</g>
</g>
<g id="Frame_39_2" transform="translate(40.5225 -6.08359e-05)">
<g id="Group_67" transform="translate(3.11133 6.70312)">
<path id="Vector_232" d="M2.16539 3.49292C3.66367 3.49292 6.41328 3.62876 7.51231 3.93747C8.6544 4.25829 9.70623 4.79364 10.8053 5.54793C11.3695 5.93517 11.9043 6.30428 12.4517 6.47613C13.4981 6.80459 16.4774 3.51351 18.6939 2.02036C20.5355 0.779796 23.2855 0.19998 24.8322 0.0291542C25.3438 -0.0273485 26.0928 -0.0058342 26.5116 0.13C27.8878 0.576323 28.0932 3.55055 28.7127 5.9544C29.0767 7.36692 29.3322 8.6999 29.7078 10.4493C30.0366 11.9808 30.0855 13.2277 30.4971 14.4986C30.9964 16.0402 30.7729 17.2081 30.5352 18.0313C30.1148 19.4869 26.4715 18.517 24.4319 18.7218C23.1392 18.8516 21.6555 19.1344 20.4865 19.3732C19.2623 19.6232 17.951 20.0935 15.8939 20.1974C13.6971 20.3084 10.9534 20.5051 8.72761 21.2234C5.41697 22.2917 3.61428 23.0407 2.64801 23.5254C1.14889 24.2773 2.16539 20.1017 1.75582 18.7969C1.0982 16.7018 0.930519 14.0715 0.7597 12.5527C0.606081 11.1867 0.383075 9.53548 0.245182 7.48048C0.175017 6.43482 -0.098527 5.55513 0.0373076 4.80187C0.444812 4.18444 1.0643 3.76871 1.71466 3.49498C2.02543 3.35709 2.2971 3.22126 2.78281 3.0813" stroke="#392EFF" stroke-width="1.75097" stroke-linecap="round" stroke-linejoin="round"/>
<path id="Vector_233" transform="translate(13.4843 7.81462)" d="M0 0C0.615366 1.23074 1.43654 3.2806 2.53453 5.78839C2.94924 7.26919 3.08714 8.77159 3.25796 10.1485C3.29295 10.4922 3.29295 10.8997 3.49875 11.5253" stroke="#392EFF" stroke-width="1.75097" stroke-linecap="round" stroke-linejoin="round"/>
<path id="Vector_234" transform="translate(5.25195 9.66602)" d="M0 0C0.203748 0.067916 0.407496 0.135832 0.648292 0.204778C0.889088 0.273725 1.16076 0.341643 1.70821 0.376632C2.25566 0.41162 3.07066 0.41162 3.91036 0.41162" stroke="#392EFF" stroke-width="1.75097" stroke-linecap="round" stroke-linejoin="round"/>
<path id="Vector_235" transform="translate(7.10547 14.6055)" d="M0 0C0.135837 0.067916 0.271674 0.135832 0.986864 0.170819C1.70205 0.205806 2.99248 0.205806 4.32201 0.205806" stroke="#392EFF" stroke-width="1.75097" stroke-linecap="round" stroke-linejoin="round"/>
<path id="Vector_236" transform="translate(18.0117 7.40234)" d="M0 0.823232C0.815003 0.6874 1.50652 0.617426 2.05398 0.583467C2.60143 0.481589 3.153 0.343696 3.70045 0.206835C3.97624 0.13789 4.2479 0.0699741 4.73362 0" stroke="#392EFF" stroke-width="1.75097" stroke-linecap="round" stroke-linejoin="round"/>
<path id="Vector_237" transform="translate(21.9219 10.2852)" d="M0 0H3.91038" stroke="#392EFF" stroke-width="1.75097" stroke-linecap="round" stroke-linejoin="round"/>
</g>
</g>
<g id="Frame_30_3" transform="translate(81.0448 -6.08359e-05)">
<path id="Vector_20_10" transform="translate(18.0347 17.9547)" d="M0 0.635136C0.145086 0.490053 0.328637 0.306502 0.566042 0.105365C0.686826 0.00303312 0.83972 -0.0595016 0.91446 0.0844815C0.9892 0.228465 0.9892 0.591171 0.916658 0.81429C0.844117 1.03741 0.699034 1.10995 0.551753 1.11105C0.404472 1.11215 0.259389 1.03961 0.184649 0.929696C0.109909 0.819785 0.109909 0.674702 0.182451 0.581827C0.338222 0.382393 0.694637 0.379043 0.95073 0.396629C1.07382 0.405082 1.13428 0.595567 1.11724 0.724712C1.10021 0.853857 0.991398 0.962668 0.862803 1.03686C0.734208 1.11105 0.589125 1.14732 0.219827 0.854958" stroke="#392EFF" stroke-width="1.12062" stroke-linecap="round"/>
</g>
<g id="Frame_35_2" transform="translate(121.736)">
<path id="Vector_20_11" transform="translate(18.0347 17.9547)" d="M0 0.635136C0.145086 0.490053 0.328637 0.306502 0.566042 0.105365C0.686826 0.00303312 0.83972 -0.0595016 0.91446 0.0844815C0.9892 0.228465 0.9892 0.591171 0.916658 0.81429C0.844117 1.03741 0.699034 1.10995 0.551753 1.11105C0.404472 1.11215 0.259389 1.03961 0.184649 0.929696C0.109909 0.819785 0.109909 0.674702 0.182451 0.581827C0.338222 0.382393 0.694637 0.379043 0.95073 0.396629C1.07382 0.405082 1.13428 0.595567 1.11724 0.724712C1.10021 0.853857 0.991398 0.962668 0.862803 1.03686C0.734208 1.11105 0.589125 1.14732 0.219827 0.854958" stroke="#392EFF" stroke-width="1.12062" stroke-linecap="round"/>
</g>
<g id="Frame_36_2" transform="translate(162.428)">
<path id="Vector_20_12" transform="translate(18.0347 17.9547)" d="M0 0.635136C0.145086 0.490053 0.328637 0.306502 0.566042 0.105365C0.686826 0.00303312 0.83972 -0.0595016 0.91446 0.0844815C0.9892 0.228465 0.9892 0.591171 0.916658 0.81429C0.844117 1.03741 0.699034 1.10995 0.551753 1.11105C0.404472 1.11215 0.259389 1.03961 0.184649 0.929696C0.109909 0.819785 0.109909 0.674702 0.182451 0.581827C0.338222 0.382393 0.694637 0.379043 0.95073 0.396629C1.07382 0.405082 1.13428 0.595567 1.11724 0.724712C1.10021 0.853857 0.991398 0.962668 0.862803 1.03686C0.734208 1.11105 0.589125 1.14732 0.219827 0.854958" stroke="#392EFF" stroke-width="1.12062" stroke-linecap="round"/>
</g>
<g id="Frame_37_3" transform="translate(203.119)">
<path id="Vector_20_13" transform="translate(18.0347 17.9547)" d="M0 0.635136C0.145086 0.490053 0.328637 0.306502 0.566042 0.105365C0.686826 0.00303312 0.83972 -0.0595016 0.91446 0.0844815C0.9892 0.228465 0.9892 0.591171 0.916658 0.81429C0.844117 1.03741 0.699034 1.10995 0.551753 1.11105C0.404472 1.11215 0.259389 1.03961 0.184649 0.929696C0.109909 0.819785 0.109909 0.674702 0.182451 0.581827C0.338222 0.382393 0.694637 0.379043 0.95073 0.396629C1.07382 0.405082 1.13428 0.595567 1.11724 0.724712C1.10021 0.853857 0.991398 0.962668 0.862803 1.03686C0.734208 1.11105 0.589125 1.14732 0.219827 0.854958" stroke="#392EFF" stroke-width="1.12062" stroke-linecap="round"/>
</g>
<g id="Frame_38_3" transform="translate(243.811)">
<path id="Vector_20_14" transform="translate(18.0347 17.9547)" d="M0 0.635136C0.145086 0.490053 0.328637 0.306502 0.566042 0.105365C0.686826 0.00303312 0.83972 -0.0595016 0.91446 0.0844815C0.9892 0.228465 0.9892 0.591171 0.916658 0.81429C0.844117 1.03741 0.699034 1.10995 0.551753 1.11105C0.404472 1.11215 0.259389 1.03961 0.184649 0.929696C0.109909 0.819785 0.109909 0.674702 0.182451 0.581827C0.338222 0.382393 0.694637 0.379043 0.95073 0.396629C1.07382 0.405082 1.13428 0.595567 1.11724 0.724712C1.10021 0.853857 0.991398 0.962668 0.862803 1.03686C0.734208 1.11105 0.589125 1.14732 0.219827 0.854958" stroke="#392EFF" stroke-width="1.12062" stroke-linecap="round"/>
</g>
</g>
<g id="Frame_30_4" transform="translate(8.54309e-05 145.205)">
<g id="Frame_28_5">
<g id="Group_3_2" transform="translate(7.04492 5.33203)">
<path id="Vector_6_2" transform="translate(8.78906 6.17773)" d="M1.46613 0.385121C1.76852 0.0809025 2.98723 -0.164674 4.05842 0.138628C4.78439 0.344183 5.06913 1.17683 5.25239 1.78527C5.49829 2.60167 5.13326 3.37601 4.73741 3.80302C4.02985 4.56627 2.81496 4.35465 1.28835 4.296C0.857683 3.93314 0.672587 3.44199 0.520477 2.9545C0.428844 2.70893 0.307886 2.46702 0 1.66798" stroke="#392EFF" stroke-width="1.57389" stroke-linecap="round"/>
<path id="Vector_7_2" d="M9.70626 5.0957C9.64579 4.304 9.523 2.8452 9.64396 1.28837C9.69055 0.68869 10.0068 0.517738 10.2524 0.394033C11.1684 -0.0673843 12.206 -0.0357247 13.0298 0.0549914C13.3795 0.0935054 13.5512 0.32714 13.7051 0.54156C14.0158 0.974314 14.1046 2.33573 14.1954 3.86416C14.222 4.31247 14.4675 4.06209 14.6517 3.84675C15.3419 3.03975 16.663 2.53365 17.8872 2.19462C18.2417 2.09644 18.7376 2.16346 19.0775 2.31465C19.709 2.59548 19.9068 3.3217 20.0901 4.02085C20.3751 5.10834 20.0314 6.07068 19.697 6.52792C18.8803 7.64437 17.2861 7.59911 16.1233 7.69166C15.2502 7.76115 18.1915 8.39081 19.324 9.03316C20.4095 9.64879 20.4566 11.0775 20.398 13.5772C20.3846 14.1472 20.0351 14.3763 19.7895 14.5614C18.6644 15.4094 16.7363 14.7501 15.4837 14.2306C14.4021 13.782 13.9232 12.7947 13.6483 12.7919C12.1149 12.7766 13.1297 15.5345 12.2152 16.7285C11.096 18.1897 9.77224 18.3494 8.6415 18.3531C7.40421 18.3571 7.08191 16.7074 6.80518 15.3961C6.49839 13.9425 6.89498 12.7342 6.41299 12.3677C3.18176 9.91049 0.667627 11.0225 0.270856 10.7183C-0.107358 10.4283 -0.00678889 9.74148 0.0839261 9.16236C0.174568 8.58371 0.724433 8.15257 1.12029 7.7558C1.83083 7.04363 3.76847 7.29489 5.48017 7.29489C5.98231 7.29489 5.74041 7.29489 5.49483 7.20417C4.97112 7.01071 4.5162 6.50318 4.14966 5.77378C3.60205 4.68404 4.20648 3.57094 4.60233 3.08345C4.80784 2.83037 5.05866 2.59596 5.48566 2.47134C6.48332 2.18018 7.38246 2.52816 7.80947 2.92401C7.99457 3.13843 8.11553 3.38034 8.20808 3.62592C8.30063 3.87149 8.3611 4.1134 8.42341 4.91244" stroke="#392EFF" stroke-width="1.57389" stroke-linecap="round"/>
<path id="Vector_8_2" transform="translate(13.1875 15.3594)" d="M0 0C0.0604766 3.60117 0.304216 4.81988 0.396766 6.62138C0.487488 7.26464 0.610278 7.75579 0.701909 8.30375C0.733064 8.60981 0.733064 8.97267 0.733064 9.34653" stroke="#392EFF" stroke-width="1.57389" stroke-linecap="round"/>
<path id="Vector_9_2" transform="translate(7.23047 18.1074)" d="M5.4088 7.33143C4.44117 6.96857 2.43075 6.78164 0.321364 6.81188C-0.276785 6.82045 0.086783 6.9026 0.394669 6.96399C1.55913 7.1962 2.89807 7.45239 4.24324 7.54494C4.79915 7.58319 5.5261 7.69797 6.2894 7.57701C7.30167 7.41661 7.11684 5.44381 7.84898 4.37263C8.7645 3.03317 10.2873 1.71986 12.3032 0.676157C13.5868 0.0116322 14.7517 -0.182441 15.3015 0.180425C16.2233 0.788847 15.307 2.31913 14.9111 2.86801C14.064 4.04268 12.5012 4.82437 11.4602 6.16497C10.9727 6.83664 10.4816 7.39009 9.9941 7.81709C9.74853 8.00219 9.50662 8.12314 8.70758 8.24776" stroke="#392EFF" stroke-width="1.57389" stroke-linecap="round"/>
</g>
</g>
<g id="Frame_30_5" transform="translate(40.5225 -0.000180634)">
<path id="Vector_20_15" transform="translate(18.0347 17.9547)" d="M0 0.635136C0.145086 0.490053 0.328637 0.306502 0.566042 0.105365C0.686826 0.00303312 0.83972 -0.0595016 0.91446 0.0844815C0.9892 0.228465 0.9892 0.591171 0.916658 0.81429C0.844117 1.03741 0.699034 1.10995 0.551753 1.11105C0.404472 1.11215 0.259389 1.03961 0.184649 0.929696C0.109909 0.819785 0.109909 0.674702 0.182451 0.581827C0.338222 0.382393 0.694637 0.379043 0.95073 0.396629C1.07382 0.405082 1.13428 0.595567 1.11724 0.724712C1.10021 0.853857 0.991398 0.962668 0.862803 1.03686C0.734208 1.11105 0.589125 1.14732 0.219827 0.854958" stroke="#392EFF" stroke-width="1.12062" stroke-linecap="round"/>
</g>
<g id="Frame_39_3" transform="translate(81.2139)">
<g id="Group_68" transform="translate(10.082 5.48828)">
<path id="Vector_238" d="M8.351 17.4355C8.02201 17.2173 7.36237 16.4468 6.72753 15.6202C6.13336 14.8466 5.98357 13.7488 5.24045 12.4254C4.65705 11.3864 3.55993 10.5514 2.87053 9.8058C2.07568 8.94613 1.24541 8.01865 0.583283 6.91347C0.322338 6.47791 -0.0242844 6.14058 0.00134247 5.7281C0.0803153 4.45697 2.17452 5.47598 3.1119 5.75124C4.36667 6.1197 4.87756 6.85313 5.15283 6.96472C6.28935 7.42546 5.26607 4.1038 5.31898 0.503052C5.32863 -0.154066 5.64631 -0.0359018 5.84057 0.129421C6.80527 0.950445 7.68641 2.38443 8.23858 3.43424C8.8731 4.64059 9.28673 5.25445 9.50662 5.47598C10.0569 6.03036 10.5531 4.37658 11.0202 4.12859C11.2522 4.00539 11.5418 4.04428 11.7368 4.20795C12.7861 5.08827 12.5386 6.68615 12.8123 7.15484C12.9437 7.37998 13.4132 7.24163 13.6918 7.10442C14.6911 6.61218 15.5095 5.70082 16.2576 5.31148C17.3173 4.75999 15.2417 7.40034 14.444 8.42122C13.4012 9.75585 12.6527 10.6539 12.2378 11.4805C11.7499 12.4523 11.2739 13.2429 10.997 14.1257C10.653 15.2224 10.1167 16.7676 9.70252 17.8719C9.42885 18.6017 9.50827 20.6163 9.29004 22.8217C9.21992 23.5303 8.63536 23.2813 8.19229 23.0052C6.60528 22.0163 5.87446 21.4065 4.71885 20.8263C3.52894 20.2288 2.02077 20.5766 0.946168 20.6857C0.566808 20.7243 0.580803 21.0131 0.662639 21.2073C1.13158 22.3205 2.67049 23.1094 6.32497 25.0875C7.41899 25.6796 7.90794 25.9761 8.3477 26.0323C9.82059 26.2206 11.4822 23.6682 13.195 22.5365C14.1795 21.886 15.6186 21.681 16.6693 21.2933C16.8341 21.2325 16.8916 21.6182 16.8379 21.8405C16.6151 22.7624 15.1921 23.602 13.3173 24.8709C12.7089 25.1495 12.2659 25.3693 11.8261 25.6173C11.6046 25.7017 11.3863 25.7017 10.6655 25.371" stroke="#392EFF" stroke-width="1.75097" stroke-linecap="round" stroke-linejoin="round"/>
<path id="Vector_239" transform="translate(7.52539 7.84766)" d="M0 0C0.436456 0.436456 0.824968 0.988636 1.15479 1.73011C1.48461 2.63526 1.76235 3.68672 1.95496 4.64972C2.03845 5.06717 2.093 5.33995 2.14921 5.621" stroke="#392EFF" stroke-width="1.75097" stroke-linecap="round" stroke-linejoin="round"/>
<path id="Vector_240" transform="translate(10.8301 8.01172)" d="M0 0C0.163672 0.109114 0.327344 0.218228 0.41166 0.519943C0.495975 0.821657 0.495975 1.31267 0.495975 1.81856" stroke="#392EFF" stroke-width="1.75097" stroke-linecap="round" stroke-linejoin="round"/>
</g>
</g>
<g id="Frame_35_3" transform="translate(121.736)">
<path id="Vector_20_16" transform="translate(18.0347 17.9547)" d="M0 0.635136C0.145086 0.490053 0.328637 0.306502 0.566042 0.105365C0.686826 0.00303312 0.83972 -0.0595016 0.91446 0.0844815C0.9892 0.228465 0.9892 0.591171 0.916658 0.81429C0.844117 1.03741 0.699034 1.10995 0.551753 1.11105C0.404472 1.11215 0.259389 1.03961 0.184649 0.929696C0.109909 0.819785 0.109909 0.674702 0.182451 0.581827C0.338222 0.382393 0.694637 0.379043 0.95073 0.396629C1.07382 0.405082 1.13428 0.595567 1.11724 0.724712C1.10021 0.853857 0.991398 0.962668 0.862803 1.03686C0.734208 1.11105 0.589125 1.14732 0.219827 0.854958" stroke="#392EFF" stroke-width="1.12062" stroke-linecap="round"/>
</g>
<g id="Frame_36_3" transform="translate(162.428)">
<path id="Vector_20_17" transform="translate(18.0347 17.9547)" d="M0 0.635136C0.145086 0.490053 0.328637 0.306502 0.566042 0.105365C0.686826 0.00303312 0.83972 -0.0595016 0.91446 0.0844815C0.9892 0.228465 0.9892 0.591171 0.916658 0.81429C0.844117 1.03741 0.699034 1.10995 0.551753 1.11105C0.404472 1.11215 0.259389 1.03961 0.184649 0.929696C0.109909 0.819785 0.109909 0.674702 0.182451 0.581827C0.338222 0.382393 0.694637 0.379043 0.95073 0.396629C1.07382 0.405082 1.13428 0.595567 1.11724 0.724712C1.10021 0.853857 0.991398 0.962668 0.862803 1.03686C0.734208 1.11105 0.589125 1.14732 0.219827 0.854958" stroke="#392EFF" stroke-width="1.12062" stroke-linecap="round"/>
</g>
<g id="Frame_37_4" transform="translate(203.119)">
<path id="Vector_20_18" transform="translate(18.0347 17.9547)" d="M0 0.635136C0.145086 0.490053 0.328637 0.306502 0.566042 0.105365C0.686826 0.00303312 0.83972 -0.0595016 0.91446 0.0844815C0.9892 0.228465 0.9892 0.591171 0.916658 0.81429C0.844117 1.03741 0.699034 1.10995 0.551753 1.11105C0.404472 1.11215 0.259389 1.03961 0.184649 0.929696C0.109909 0.819785 0.109909 0.674702 0.182451 0.581827C0.338222 0.382393 0.694637 0.379043 0.95073 0.396629C1.07382 0.405082 1.13428 0.595567 1.11724 0.724712C1.10021 0.853857 0.991398 0.962668 0.862803 1.03686C0.734208 1.11105 0.589125 1.14732 0.219827 0.854958" stroke="#392EFF" stroke-width="1.12062" stroke-linecap="round"/>
</g>
<g id="Frame_38_4" transform="translate(243.811)">
<path id="Vector_20_19" transform="translate(18.0347 17.9547)" d="M0 0.635136C0.145086 0.490053 0.328637 0.306502 0.566042 0.105365C0.686826 0.00303312 0.83972 -0.0595016 0.91446 0.0844815C0.9892 0.228465 0.9892 0.591171 0.916658 0.81429C0.844117 1.03741 0.699034 1.10995 0.551753 1.11105C0.404472 1.11215 0.259389 1.03961 0.184649 0.929696C0.109909 0.819785 0.109909 0.674702 0.182451 0.581827C0.338222 0.382393 0.694637 0.379043 0.95073 0.396629C1.07382 0.405082 1.13428 0.595567 1.11724 0.724712C1.10021 0.853857 0.991398 0.962668 0.862803 1.03686C0.734208 1.11105 0.589125 1.14732 0.219827 0.854958" stroke="#392EFF" stroke-width="1.12062" stroke-linecap="round"/>
</g>
</g>
</g>
</g>
</g>
</g>
<defs>
<filter id="filter0_d_3943_17812" x="-13.5" y="-9.5" width="356" height="292" filterUnits="userSpaceOnUse" color-interpolation-filters="sRGB">
<feFlood flood-opacity="0" result="BackgroundImageFix"/>
<feColorMatrix in="SourceAlpha" type="matrix" values="0 0 0 0 0 0 0 0 0 0 0 0 0 0 0 0 0 0 127 0" result="hardAlpha"/>
<feOffset dy="4"/>
<feGaussianBlur stdDeviation="6.75"/>
<feComposite in2="hardAlpha" operator="out"/>
<feColorMatrix type="matrix" values="0 0 0 0 0 0 0 0 0 0 0 0 0 0 0 0 0 0 0.05 0"/>
<feBlend mode="normal" in2="BackgroundImageFix" result="effect1_dropShadow_3943_17812"/>
<feBlend mode="normal" in="SourceGraphic" in2="effect1_dropShadow_3943_17812" result="shape"/>
</filter>
</defs>
</svg>
